<svg xmlns="http://www.w3.org/2000/svg" xmlns:xlink="http://www.w3.org/1999/xlink" viewBox="0 0 43.25 43.75"><defs><style>.cls-1{fill:none;}.cls-2{clip-path:url(#clip-path);}.cls-3{fill:#fff;fill-rule:evenodd;}</style><clipPath id="clip-path"><path class="cls-1" d="M32.5,21.87a10.77,10.77,0,0,0-7.38-10.23,4,4,0,0,1-1.4,2,8.19,8.19,0,0,1-2.7.94c.5-.87.05-1.21.08-2.62a2.25,2.25,0,0,1,.22-.91,10.72,10.72,0,0,0-7.18,3.1,61.92,61.92,0,0,1,7.26,3.53,5,5,0,0,1,5.53.4c2.26,1.6,5,6,3.72,7.85s-6.21.45-8.46-1.15-3-4.29-1.77-6.14a56.34,56.34,0,0,0-7.22-3.42A10.64,10.64,0,0,0,11.35,19a5.81,5.81,0,0,1,2.05-.43,16,16,0,0,1,5.34,1.31c-1.7.88-1.35,1.91-2.87,4.16a6.91,6.91,0,0,1-3.95,2.36,10.75,10.75,0,0,0,6.45,5.76,5.68,5.68,0,0,1,.94-3.93,10.21,10.21,0,0,1,2.87-2c-.29,1.19.36,1.45.81,3.13a4.87,4.87,0,0,1-.75,3.34A10.76,10.76,0,0,0,32.5,21.87Z"/></clipPath></defs><title>Mesa de trabajo 24</title><g id="Capa_2" data-name="Capa 2"><path d="M17.47,10.47c.12,0-.18-1-.28-1.28s-.22-.47-.34-.43-.09.28,0,.55S17.35,10.51,17.47,10.47Z"/><path d="M16.37,8c0,.1.22.44.34.4s0-.42,0-.53a.17.17,0,0,0-.23-.12C16.35,7.75,16.33,7.85,16.37,8Z"/><path d="M16.32,7.31c.12,0,.08-.31.05-.38s-.09-.11-.21-.07S16,7,16,7.05,16.2,7.35,16.32,7.31Z"/><path d="M11.44,13.1c-.22-.18-.43-.29-.51-.2s.07.29.29.47a5.25,5.25,0,0,0,1,.71l.05-.06A4.73,4.73,0,0,0,11.44,13.1Z"/><path d="M10.61,12.63c.08-.1-.19-.38-.27-.45a.16.16,0,0,0-.26,0,.17.17,0,0,0,0,.26C10.2,12.52,10.52,12.73,10.61,12.63Z"/><path d="M9.75,11.91c.08-.1-.09-.31-.15-.35s-.13-.05-.21,0-.07.18,0,.23S9.67,12,9.75,11.91Z"/><path d="M8.42,19.37c-.28-.05-.52,0-.54.08s.2.22.48.27a6,6,0,0,0,1.21.09s0-.08,0-.12A6.37,6.37,0,0,0,8.42,19.37Z"/><path d="M7,19.12a.17.17,0,0,0-.22.14.18.18,0,0,0,.16.21c.11,0,.5,0,.52-.09S7.11,19.14,7,19.12Z"/><path d="M6.05,19c-.07,0-.14,0-.16.15s0,.19.1.2.35,0,.37-.12S6.13,19,6.05,19Z"/><path d="M8.94,26.31c-.27.09-.47.22-.43.34s.28.09.55,0a6,6,0,0,0,1.11-.54.3.3,0,0,1,0-.1A5.34,5.34,0,0,0,8.94,26.31Z"/><path d="M7.58,26.8a.17.17,0,0,0-.12.23.16.16,0,0,0,.24.1c.11,0,.45-.22.41-.33S7.69,26.76,7.58,26.8Z"/><path d="M6.68,27.13c-.07,0-.11.09-.07.21s.12.15.19.12.3-.16.26-.28S6.75,27.1,6.68,27.13Z"/><path d="M12.85,32.06c-.18.22-.29.43-.2.51s.29-.07.47-.28.79-1,.7-1.11h0C13.71,31.1,13,31.84,12.85,32.06Z"/><path d="M11.93,33.16a.16.16,0,0,0,0,.26.17.17,0,0,0,.26,0c.07-.09.28-.41.18-.5S12,33.08,11.93,33.16Z"/><path d="M11.31,33.9c-.05.05-.05.13,0,.22a.14.14,0,0,0,.22,0c.05,0,.18-.29.08-.37S11.35,33.84,11.31,33.9Z"/><path d="M19.12,35.08c-.05.28,0,.52.08.54s.22-.2.27-.48.17-1.29.05-1.31S19.17,34.8,19.12,35.08Z"/><path d="M18.87,36.5a.17.17,0,0,0,.14.22.18.18,0,0,0,.21-.16c0-.11,0-.5-.09-.52S18.89,36.39,18.87,36.5Z"/><path d="M18.93,37.14c-.12,0-.22.23-.23.31s0,.14.15.16.19,0,.2-.1S19.06,37.16,18.93,37.14Z"/><path d="M25.78,33.28c-.12,0,.18,1,.28,1.29s.22.47.34.42.09-.28,0-.55S25.9,33.24,25.78,33.28Z"/><path d="M26.88,35.8c0-.11-.22-.45-.34-.41s0,.42,0,.53a.17.17,0,0,0,.23.12A.16.16,0,0,0,26.88,35.8Z"/><path d="M26.93,36.44c-.12.05-.08.31-.05.38s.09.11.21.07.15-.12.12-.19S27.05,36.4,26.93,36.44Z"/><path d="M32,30.38c-.21-.18-1-.8-1.11-.7s.67.79.89,1,.43.29.51.2S32.25,30.56,32,30.38Z"/><path d="M32.64,31.12c-.08.1.19.38.27.45a.16.16,0,0,0,.26,0,.17.17,0,0,0,0-.26C33.05,31.23,32.73,31,32.64,31.12Z"/><path d="M33.5,31.84c-.08.1.09.31.15.35s.13.05.22,0,.06-.18,0-.23S33.58,31.74,33.5,31.84Z"/><path d="M34.89,24c-.28,0-1.29-.17-1.31-.05s1,.35,1.25.4.52,0,.54-.08S35.17,24.08,34.89,24Z"/><path d="M36.31,24.28c-.11,0-.5,0-.52.09s.35.24.46.26a.17.17,0,0,0,.22-.14A.18.18,0,0,0,36.31,24.28Z"/><path d="M37.26,24.45c-.08,0-.35,0-.37.12s.23.22.31.23.14,0,.16-.15S37.33,24.46,37.26,24.45Z"/><path d="M34.32,17.44c.26-.09.47-.22.42-.34s-.28-.09-.55,0-1.2.49-1.16.61S34.05,17.54,34.32,17.44Z"/><path d="M35.79,16.72a.16.16,0,0,0-.24-.1c-.11,0-.45.21-.41.34s.42,0,.53,0A.17.17,0,0,0,35.79,16.72Z"/><path d="M36.45,16.29c-.07,0-.3.16-.26.28s.31.08.38.05.11-.09.07-.21S36.52,16.27,36.45,16.29Z"/><path d="M30.4,11.69c.18-.22.29-.43.2-.51s-.29.07-.47.29-.8,1-.7,1.11S30.22,11.91,30.4,11.69Z"/><path d="M31.32,10.59a.16.16,0,0,0,0-.26.17.17,0,0,0-.26,0c-.07.09-.28.41-.18.5S31.25,10.67,31.32,10.59Z"/><path d="M31.94,9.85s0-.13,0-.21-.18-.07-.23,0-.18.29-.08.37S31.9,9.91,31.94,9.85Z"/><path d="M24.13,8.67c.05-.28,0-.52-.08-.54s-.22.2-.27.48-.17,1.29-.05,1.31S24.08,9,24.13,8.67Z"/><path d="M24.38,7.25A.17.17,0,0,0,24.24,7a.18.18,0,0,0-.21.16c0,.11,0,.5.09.52S24.36,7.36,24.38,7.25Z"/><path d="M24.32,6.61c.12,0,.22-.23.23-.31s0-.14-.15-.16-.19,0-.2.1S24.19,6.59,24.32,6.61Z"/><path d="M12.32,14l-.05.06a.06.06,0,0,0,.06,0S12.33,14,12.32,14Z"/><path d="M9.59,19.69s0,.08,0,.12.1,0,.1,0S9.64,19.72,9.59,19.69Z"/><path d="M10.22,26s0,0-.09,0a.3.3,0,0,0,0,.1S10.23,26.05,10.22,26Z"/><polygon points="13.82 31.17 13.82 31.18 13.82 31.17 13.82 31.17"/><path d="M32.5,21.87a10.77,10.77,0,0,0-7.38-10.23,4,4,0,0,1-1.4,2,8.19,8.19,0,0,1-2.7.94c.5-.87.05-1.21.08-2.62a2.25,2.25,0,0,1,.22-.91,10.72,10.72,0,0,0-7.18,3.1,61.92,61.92,0,0,1,7.26,3.53,5,5,0,0,1,5.53.4c2.26,1.6,5,6,3.72,7.85s-6.21.45-8.46-1.15-3-4.29-1.77-6.14a56.34,56.34,0,0,0-7.22-3.42A10.64,10.64,0,0,0,11.35,19a5.81,5.81,0,0,1,2.05-.43,16,16,0,0,1,5.34,1.31c-1.7.88-1.35,1.91-2.87,4.16a6.91,6.91,0,0,1-3.95,2.36,10.75,10.75,0,0,0,6.45,5.76,5.68,5.68,0,0,1,.94-3.93,10.21,10.21,0,0,1,2.87-2c-.29,1.19.36,1.45.81,3.13a4.87,4.87,0,0,1-.75,3.34A10.76,10.76,0,0,0,32.5,21.87Z"/><g class="cls-2"><path class="cls-3" d="M12.42,13.72c-.06-.05-.23-.06-.24,0S12.41,13.82,12.42,13.72Z"/><path class="cls-3" d="M19.34,14.49a.48.48,0,0,0-.29.09C19.21,14.58,19.31,14.66,19.34,14.49Z"/><path class="cls-3" d="M26.88,13.47c.07-.15.07-.15-.16-.1C26.78,13.39,26.73,13.51,26.88,13.47Z"/><path class="cls-3" d="M28.08,14.44c.18.32.21.17.24-.18C28.25,14.35,28.12,14.25,28.08,14.44Z"/><path class="cls-3" d="M27.09,16.74c0,.12-.2.15,0,.21C27.13,16.91,27.32,16.74,27.09,16.74Z"/><path class="cls-3" d="M21.73,29v-.12c-.07,0-.18,0-.19,0S21.58,29,21.73,29Z"/><path class="cls-3" d="M18.53,29.57c0-.17-.17-.11-.28-.08S18.43,29.55,18.53,29.57Z"/><path class="cls-3" d="M32.21,19.43l-.26,0C32,19.59,32.31,19.56,32.21,19.43Z"/><path class="cls-3" d="M23.59,20.39c-.12,0-.35-.05-.38,0C23.37,20.51,23.47,20.53,23.59,20.39Z"/><path class="cls-3" d="M.92,21.33c0-.78-.18,0-.24,0C.79,21.27.78,21.36.92,21.33Z"/><path class="cls-3" d="M17.43,23.65c.13,0,.12-.09.14-.17h-.19C17.37,23.56,17.44,23.58,17.43,23.65Z"/><path class="cls-3" d="M25.55,26.42c-.12-.08-.44-.45-.43-.38C25.32,26.21,25.41,26.51,25.55,26.42Z"/><path class="cls-3" d="M19.44,26.25a.2.2,0,0,0,.28,0C19.58,26.23,19.48,26.1,19.44,26.25Z"/><path class="cls-3" d="M24.11,30.24c.07-.07.1-.32-.09-.29C24,30.13,23.93,30.18,24.11,30.24Z"/><path class="cls-3" d="M14.19,30.48c0,.15-.24,0-.15.21S14.4,30.49,14.19,30.48Z"/><path class="cls-3" d="M13.37,31.74c.13.13.19-.1.29,0,0-.1-.17-.23-.24-.12s.1,0,.1,0S13.39,31.69,13.37,31.74Z"/><path class="cls-3" d="M21.58,31.78c-.44-.14-.19.19,0,0Z"/><path class="cls-3" d="M24.64,31.78c-.19,0-.06.23-.1.33C24.82,32.06,24.52,31.92,24.64,31.78Z"/><path class="cls-3" d="M32.94,33.27c-.07-.07.08-.2.24-.33-.16,0-.16.13-.34.19C32.82,33.24,32.82,33.34,32.94,33.27Z"/><path class="cls-3" d="M40,32.43s-.88-.67-.1.09C39.86,32.46,40,32.48,40,32.43Z"/><path class="cls-3" d="M18.53,13.44c.15,0,.28-.16.19-.21,0,.2-.08-.09.05-.08-.11,0-.21-.09-.24,0s.09.11.14.16S18.51,13.35,18.53,13.44Z"/><path class="cls-3" d="M18.67,13.52c0-.14.43.07.29,0s-.06,0-.05,0,.09,0,.1,0c-.14,0-.18,0-.24,0,.18-.11.08-.09.24-.09-.06,0,0,0,0-.08C18.8,13.22,18.64,13.46,18.67,13.52Z"/><path class="cls-3" d="M14.19,25.66c.09,0,0-.06.05-.08s0,0,0,0-.2.17-.09.21a.23.23,0,0,1,.14-.13.21.21,0,0,0-.05-.16c.11-.08.06,0,.15,0a.21.21,0,0,1,0-.12c-.18,0,0-.06-.09-.12.06,0,.11.07.14,0s-.18,0-.19-.08c.16,0,.07-.08,0-.08s-.08.08,0,.16-.06,0-.09,0,0-.21-.05-.12.13.22,0,.2C14.26,25.52,14.08,25.76,14.19,25.66Z"/><path class="cls-3" d="M16.57,25.79a.37.37,0,0,0,.2,0s0,.1,0,0,.07-.23-.09-.29c0,.19-.14,0-.19.16-.05-.07.14-.13,0-.16s0,.08-.05.08a0,0,0,0,0-.05,0c.12,0,0,.14,0,.17S16.68,25.6,16.57,25.79Z"/><path class="cls-3" d="M23.35,13.76c0,.05-.09.09,0,.12s0,0,.09,0,0-.08,0-.08,0,.08.05.08v-.12c-.16,0-.1-.16-.24-.16a.18.18,0,0,0-.05.24S23.31,13.78,23.35,13.76Z"/><path class="cls-3" d="M29.84,14.13c-.54-.1.54-.1.05-.25,0,0,.15-.22.05-.12s-.18,0-.2.08.19.16.1.17c-.85-.63-.08.15-.14.12S29.8,14.2,29.84,14.13Z"/><path class="cls-3" d="M20.34,14.13s0-.05.1,0-.19-.13-.05-.17.12.16.14.05,0-.07,0-.09-.32-.12-.2,0,0,.16,0,.17c-.13-.17-.09-.2-.14,0C20.28,14,20.25,14.13,20.34,14.13Z"/><path class="cls-3" d="M12.56,14s0,.1,0,.12c0-.17.21-.08.24-.12s-.06,0-.05-.05-.12-.05-.19,0a0,0,0,0,0-.05,0S12.57,13.93,12.56,14Z"/><path class="cls-3" d="M29.13,14.49a.65.65,0,0,0,.32.06c-.15,0-.15-.13-.32-.3C29.24,14.39,29,14.38,29.13,14.49Z"/><path class="cls-3" d="M28.11,13.45a2.16,2.16,0,0,1,.33-.34c-.27,0-.34.42-.62.32C27.92,13.56,28,13.33,28.11,13.45Z"/><path class="cls-3" d="M20.68,14.86c.06.1,0,.13,0,.16s.17-.07.15-.2c0,.16-.33-.08-.29.08C20.59,14.87,20.62,14.85,20.68,14.86Z"/><path class="cls-3" d="M28.33,13.56c-.09.15-.09.15,0,.15C28.44,13.56,28.25,13.47,28.33,13.56Z"/><path class="cls-3" d="M20.87,15c-.22.09-.22.06-.38,0,0,.08.06.08.09.12s-.07.07,0,.09a.42.42,0,0,1,.34-.09A.06.06,0,0,1,20.87,15Z"/><path class="cls-3" d="M21.44,15.14c0-.07.19.07.19-.08s-.32-.14-.19,0C21.59,15,21.31,15.16,21.44,15.14Z"/><path class="cls-3" d="M22.3,27.45s-.05,0,0,.05.34,0,.15-.13c0,.05-.08.05-.15,0s0-.14.1-.2-.28,0-.19,0-.07.07,0,.16S22.3,27.41,22.3,27.45Z"/><path class="cls-3" d="M31.91,14c-.52.29-.2.29.15.29C32.09,14.16,31.88,14.18,31.91,14Z"/><path class="cls-3" d="M17.77,27.37c.09.13-.19.13-.05.17s.08-.07.14-.09-.05.21.1.17S17.88,27.41,17.77,27.37Z"/><path class="cls-3" d="M15.76,27.74c0-.15.21-.23,0-.29-.09.11.05.15-.09.21C15.73,27.66,15.71,27.73,15.76,27.74Z"/><path class="cls-3" d="M14.47,27.58s0,.11,0,.12,0-.15-.14-.12,0,.08-.05.08,0-.05,0,0c.14,0-.11.06-.1.12a1.6,1.6,0,0,1,.53-.08.19.19,0,0,0,.14.12c0-.05.08,0,.09-.08a.29.29,0,0,0-.14,0C14.75,27.66,14.51,27.54,14.47,27.58Z"/><path class="cls-3" d="M29.47,15.7a.79.79,0,0,1,0-.23.42.42,0,0,0,.16.39s0-.13-.07-.08S29.49,15.73,29.47,15.7Z"/><path class="cls-3" d="M29.69,15s.9-.14.08-.1C29.72,14.84,29.63,14.92,29.69,15Z"/><path class="cls-3" d="M33.06,14.74c-.13.44.1.27.3.16C33.25,14.88,33.21,14.62,33.06,14.74Z"/><path class="cls-3" d="M19.48,16.12c.07-.12.17.07.29,0s-.1-.23-.14-.12.11,0,.09.08-.1-.13-.24-.12C19.5,16.07,19.41,16.1,19.48,16.12Z"/><path class="cls-3" d="M18.67,16.24c.08-.09.17.15.24.21-.12,0-.25-.19-.24,0,.06,0,.34.09.34,0C19,16.44,18.64,16,18.67,16.24Z"/><path class="cls-3" d="M12.51,16.81c0-.17.29-.24.19-.36S12.31,16.73,12.51,16.81Z"/><path class="cls-3" d="M26.49,19a.32.32,0,0,1,.06.23c-.51-.21.52-.26-.21-.41,0,.12-.05.37.07.46S26.26,19,26.49,19Z"/><path class="cls-3" d="M16.29,16.73s0,.05,0,0-.21-.11-.28,0C16.23,16.8,16.1,16.8,16.29,16.73Z"/><path class="cls-3" d="M28.42,17c-.37.34.1-.05.15.05C28.55,16.81,28.63,16.82,28.42,17Z"/><path class="cls-3" d="M27.55,16c-.15,0-.29,0-.18-.12,0,.16.18.19.06.44C27.61,16.12,27.48,16,27.55,16Z"/><path class="cls-3" d="M27.59,16.34c.39-.19,0-.26.07-.38C27.67,16.13,27.52,16.22,27.59,16.34Z"/><path class="cls-3" d="M27.92,17.54c.14.08.14.08.14-.06C28,17.6,28,17.42,27.92,17.54Z"/><path class="cls-3" d="M21.4,30.38c-.1,0,.07-.11-.1-.12,0,.1-.21,0-.24,0s0,.13,0,.16C21.1,30.22,21.39,30.45,21.4,30.38Z"/><path class="cls-3" d="M13.28,30.63c0,.05-.08,0-.09.08s.06.05.14,0,0-.05.05-.08a.06.06,0,0,1-.05-.08c-.15,0-.38.11-.29.16S13.16,30.63,13.28,30.63Z"/><path class="cls-3" d="M30.09,18.26c-.12,0-.37-.23-.35,0,.11,0,.22-.11.34-.1,0,.26-.44.22-.31.36s.31-.36.67-.34l-.22.25c.11-.13.5,0,.26-.32C30.26,18.1,30.22,18.22,30.09,18.26Z"/><path class="cls-3" d="M25.63,18.89a.88.88,0,0,1,.05-.39c-.32.12.5.41-.24.41Z"/><path class="cls-3" d="M30.36,19.41c-.76,0-.73.08,0,.14C30.31,19.49,30.3,19.46,30.36,19.41Z"/><path class="cls-3" d="M30.39,19.55c.18.21.18-.13.3,0A.35.35,0,0,0,30.39,19.55Z"/><path class="cls-3" d="M19.06,33.19c0,.05-.16.15,0,.16s.14-.07.09-.2-.33.15-.23.2A.38.38,0,0,1,19.06,33.19Z"/><path class="cls-3" d="M29.47,23.12a.41.41,0,0,0,.18.05c-.41-.15-.56-.55-.89-.56C29.37,22.89,29.18,23,29.47,23.12Z"/><path class="cls-3" d="M15,22c.06.18-.14.13-.19.2s.12.06,0,.09,0,0,0,0,.13-.13.23-.17.21.08.05.12a0,0,0,0,0-.05,0c.17.11.16-.16.1-.2C15.13,22.25,15.05,22,15,22Z"/><path class="cls-3" d="M17.14,22.18s.06-.06.1-.08,0,.1.05.12,0-.11.05-.12,0,.18,0,.08.12-.22.05-.12-.25-.09-.29,0C17.26,22,17,22.29,17.14,22.18Z"/><path class="cls-3" d="M21.3,34.9s-.21-.12-.1,0,.19.16.2.08,0-.17,0-.24c-.24.07,0,0-.19-.09,0,.17.05.17.19.13C21.23,34.79,21.43,34.86,21.3,34.9Z"/><path class="cls-3" d="M20.82,35.51c-.05,0,0,.05.05,0s-.05-.09-.05-.16.06,0,0,0a.19.19,0,0,1-.14.12c0-.07.07-.11,0-.12C20.55,35.51,20.75,35.46,20.82,35.51Z"/><path class="cls-3" d="M27.32,26.87c.5.22.19-.17.37-.24C27.7,26.77,27.45,26.76,27.32,26.87Z"/><path class="cls-3" d="M19.1,24.62c.12-.21.12.14.24-.12,0,0-.09,0-.1,0s-.15.16-.19,0,.32-.2.19,0h.15c-.08-.15,0-.32-.05-.41-.19.13.05-.08-.05-.08s0,.05-.09,0,0,.15-.05.17,0-.18,0-.09,0,.07-.09.13C19.11,24.34,18.92,24.5,19.1,24.62Z"/><path class="cls-3" d="M29.14,24.26c0-.06.16-.06.16-.06-.31-.26-.31.26-.44.16C29.09,24.37,28.84,24.21,29.14,24.26Z"/><path class="cls-3" d="M27.15,26.86c.05,0-.1,0-.16,0C27.08,26.83,27.2,26.93,27.15,26.86Z"/><path class="cls-3" d="M18.62,24.79c0-.18-.19,0-.24,0v-.17c-.14,0-.11.15-.14.25C18.44,24.9,18.48,24.68,18.62,24.79Z"/><path class="cls-3" d="M27.74,27.38c1.79.76.08.76.1,0C27.77,27.43,27.85,27.29,27.74,27.38Z"/><path class="cls-3" d="M25.58,26.71c.07.12-.08.25.23.25a.58.58,0,0,1-.24-.3S25.61,26.7,25.58,26.71Z"/><path class="cls-3" d="M26.75,27.45c-.32-.23.61.42.12-.08C26.8,27.41,26.7,27.39,26.75,27.45Z"/><path class="cls-3" d="M29,25.41c.9.07.38-.07-.06-.05C28.9,25.27,29.05,25.39,29,25.41Z"/><path class="cls-3" d="M19.72,25.27c0,.06-.08,0-.09.09s.16.15,0,.12c0,0,0-.05,0-.08s-.24-.17-.28-.08.05,0,.05,0-.06,0,0,0,.08,0,.09,0-.16,0-.14.12.16,0,.05,0a.29.29,0,0,0,.14,0s.18.16.19.08S19.79,25.3,19.72,25.27Z"/><path class="cls-3" d="M28.34,27.93c-.05-.06.11-.06.14,0S28.2,28,28.34,27.93Z"/><path class="cls-3" d="M19.05,26.74c.22,0,.19.11.39.08s0-.62-.1-.49c.11.05,0,.26.05.37S18.92,26.67,19.05,26.74Z"/><path class="cls-3" d="M26.79,26.62s.05,0,0,0-.06,0-.1,0,0,.13-.05.24c.13.07.18,0,.29.08,0-.18.09,0,.09-.08s.08-.06.05-.12S26.86,26.68,26.79,26.62Z"/><path class="cls-3" d="M30.17,25.6c0-.07.6-.07.09-.28C30.32,25.47,30,25.5,30.17,25.6Z"/><path class="cls-3" d="M31.74,25.93a1.66,1.66,0,0,0,.24-.08c-.11-.05-.13,0-.24-.08.09.23,0,0-.09.08A.12.12,0,0,1,31.74,25.93Z"/><path class="cls-3" d="M28.69,26.09c0-.05.24-.08.09-.12s0,.05-.05,0,.07-.1,0-.12S28.52,26.06,28.69,26.09Z"/><path class="cls-3" d="M23,28.81c.05,0,.19,0,.24-.16s-.06,0-.05,0,.05,0,0,0-.05,0-.1,0,0,0-.09,0,.1.18,0,.24,0-.1-.05,0S22.93,28.8,23,28.81Z"/><path class="cls-3" d="M24.64,28.94s-.05.06-.1.08,0,.13.05.16.08,0,.1-.08c-.2-.05,0-.08,0-.2s-.26-.13-.15,0,.06,0,.05,0-.12,0-.05,0S24.62,28.88,24.64,28.94Z"/><path class="cls-3" d="M21.34,30.85s.06,0,0,0,.08.11.1.2-.05,0,0,0,.19.06.24-.08C21.53,30.93,21.41,31,21.34,30.85Z"/><path class="cls-3" d="M17.1,31.34s0,0,0,0-.05,0,0,0c.12-.16,0,.13.1,0s0-.07.05-.08,0,.11.09.12.12-.15.05-.2C17.4,31.4,17.13,31.24,17.1,31.34Z"/><path class="cls-3" d="M5.16,31.46s.06,0,0,0c-.09.16-.19-.17-.23,0s-.07,0,.14.2c-.06,0-.08-.06-.1,0s0,.07.1.08,0-.08,0-.08S5,31.58,5,31.5h.14c0,.08.08.19.1.08s0,0,0-.08S5.17,31.5,5.16,31.46Z"/><path class="cls-3" d="M32.35,29.11c0,.07-.18.07-.18.2h.47c-.16-.78-.16,0-.36,0C32.34,29.23,32.43,29.08,32.35,29.11Z"/><path class="cls-3" d="M2.11,31.67h0c-.11,0-.22.09-.23,0a.17.17,0,0,1,.23,0h0s.06.07.05,0,0-.05,0-.12H1.87a.15.15,0,0,1-.05.12C1.91,31.72,2,31.79,2.11,31.67Z"/><path class="cls-3" d="M11.46,31.91c0-.05-.19-.21-.28-.08C11.37,32,12.05,31.87,11.46,31.91Z"/><path class="cls-3" d="M40.86,31.36c-.08-.77.08,0,.08,0,.15-.26-.31,0-.25-.23C40.78,31.23,40.61,31.36,40.86,31.36Z"/><path class="cls-3" d="M13,35c1,.06,0-.07,0-.12S13,35,13,35Z"/><path class="cls-3" d="M11,31.91c0,.09-.17.17,0,.2s.36,0,.24,0A.77.77,0,0,1,11,31.91Z"/><path class="cls-3" d="M11.46,32c-.14,0-.2-.23-.33-.08,0,.06.23,0,.19.12S11.46,32.08,11.46,32Z"/><path class="cls-3" d="M40.86,32.58a2.62,2.62,0,0,0-.51.07,1.19,1.19,0,0,0,.37.16C40.51,32.62,41,32.61,40.86,32.58Z"/><path class="cls-3" d="M19.58,34c-.07,0,0,.16-.1.16s.14-.16,0-.2,0,.08,0,.08,0,.07,0,.17S19.7,34.08,19.58,34Z"/><path class="cls-3" d="M32.5,34c-.1.07-.1.2-.1.33,0-.13,0-.13.14-.13C32.36,34.29,32.62,34.05,32.5,34Z"/></g></g></svg>