<svg xmlns="http://www.w3.org/2000/svg" xmlns:xlink="http://www.w3.org/1999/xlink" viewBox="0 0 99.5 44"><defs><style>.cls-1{fill:none;}.cls-2{clip-path:url(#clip-path);}.cls-3{fill:#fff;fill-rule:evenodd;}</style><clipPath id="clip-path"><path class="cls-1" d="M34,22a10.78,10.78,0,0,0-7.38-10.23,4.09,4.09,0,0,1-1.4,2.06,8.33,8.33,0,0,1-2.7.93c.5-.86,0-1.21.08-2.62a2.21,2.21,0,0,1,.22-.9,10.72,10.72,0,0,0-7.18,3.1,58.9,58.9,0,0,1,7.26,3.53,4.94,4.94,0,0,1,5.53.4c2.26,1.59,5,6,3.72,7.84S26,26.55,23.7,25s-3-4.28-1.77-6.13a56.54,56.54,0,0,0-7.22-3.43,10.72,10.72,0,0,0-1.85,3.68,6,6,0,0,1,2.05-.42A16,16,0,0,1,20.25,20c-1.7.88-1.35,1.9-2.87,4.15a6.86,6.86,0,0,1-3.95,2.36,10.8,10.8,0,0,0,6.45,5.77,5.68,5.68,0,0,1,.94-3.93,10.33,10.33,0,0,1,2.87-2c-.29,1.2.36,1.46.81,3.13a4.89,4.89,0,0,1-.75,3.35A10.77,10.77,0,0,0,34,22Z"/></clipPath></defs><title>Mesa de trabajo 21 copia</title><g id="Capa_2" data-name="Capa 2"><path d="M56.64,13.31v4.91c0,.75.2,1.36,1.11,1.36v.32H53.52v-.32c.91,0,1.11-.61,1.11-1.36V12.7l-3,5.81h-.47L48.28,13v5.2c0,1,.29,1.36,1.19,1.36v.32h-2.7v-.32c.9,0,1-.35,1-1.36V13.31c0-.75-.14-1.36-1-1.36v-.34h3l2.39,4.73,2.42-4.73h3.12V12C56.84,12,56.64,12.56,56.64,13.31Z"/><path d="M64.69,19.55a1.54,1.54,0,0,1-1.25.46c-.64,0-1.38-.21-1.56-.78a1.85,1.85,0,0,1-1.67.78c-1,0-1.91-.32-2.07-1.18s.27-1.67,1.67-2c1.11-.22,1.8,0,1.67-.8-.11-.61-.32-1.24-.91-1.24-.75-.05-1.09.68-.63,1.06a.83.83,0,0,1-1.1.39.66.66,0,0,1-.28-.9c.29-.77,1.32-1,2-1,1.9,0,2.68.63,2.89,2.12.17,1.2.23,1.67.23,1.67a3.36,3.36,0,0,0,.26,1,.54.54,0,0,0,.66,0C64.64,19.42,64.65,19.43,64.69,19.55Zm-2.95-1.48c0-.43-.08-.87-.13-1.16-.1.19-.23.25-.83.41a1.05,1.05,0,0,0-.78,1.2.9.9,0,0,0,1,.76C61.62,19.15,61.77,18.64,61.74,18.07Z"/><path d="M70.28,18.64c-.23,1.16-1.74,1.44-3,1.37-1-.05-2.3-.44-2.49-1.22a1,1,0,0,1,1.09-1.28,1,1,0,0,1,.86,1,.46.46,0,0,0-.51.58c.07.32.62.46,1.09.49.64,0,1.15-.2,1.2-.58.08-.61-.45-.8-1.28-1.23s-1.85-.92-1.72-2.06,1.31-1.41,2.36-1.29c.77.1.94.45,1,0h.2l.12,1.84H69c-.2-1-.48-1.33-1.09-1.4-.42-.06-.71.08-.75.41s.46.68,1.28,1.13S70.56,17.31,70.28,18.64Z"/><path d="M78.59,19.58v.32h-3.8v-.32c.9,0,.91-.62.83-1.36,0,0-.16-1.08-.24-1.51-.1-.7-.18-1.33-1-1.33s-1,.63-1,1.41v1.43c0,.75.07,1.36,1,1.36v.32H70.45v-.32c.9,0,1-.61,1-1.36v-4c0-.74-.11-1.36-1-1.36v-.33a4.38,4.38,0,0,0,2.6-.93h.32v3.73a2.21,2.21,0,0,1,1.88-.92c1.2,0,1.84.64,2,2.13.17,1.19.23,1.67.23,1.67C77.62,18.92,77.69,19.58,78.59,19.58Z"/><path d="M82.85,19.58v.32H78.94v-.32c.9,0,1-.61,1-1.36V17c0-.75-.12-1.37-1-1.37v-.32a4.37,4.37,0,0,0,2.61-.92h.32v3.8C81.87,19,81.94,19.58,82.85,19.58Zm-3.31-6.84a1.18,1.18,0,1,1,1.18,1.12A1.16,1.16,0,0,1,79.54,12.74Z"/><path d="M87,18.71A1.76,1.76,0,0,1,85.37,20a1.69,1.69,0,0,1-1.72-1.89V15h-.92v-.46a2.5,2.5,0,0,0,2.48-2h.36v2h1.26V15H85.57v3.21c0,.56.2.71.49.77a.7.7,0,0,0,.73-.39Z"/><path d="M93.28,17.22a3.09,3.09,0,1,1-3.07-2.8A2.82,2.82,0,0,1,93.28,17.22ZM91.34,17c-.25-1.42-.82-2.26-1.54-2.13s-1,1.12-.71,2.54.81,2.25,1.52,2.13S91.58,18.43,91.34,17Z"/><path d="M48.26,26.89H47l-.27.62h-.18l1-2.19h.16l1,2.19h-.17Zm0-.14-.58-1.26-.57,1.26Z"/><path d="M51,26.42h.15v.82a.93.93,0,0,1-.35.21,1.31,1.31,0,0,1-1-.07,1.08,1.08,0,0,1-.42-.4,1.23,1.23,0,0,1,0-1.14,1,1,0,0,1,.42-.39,1.14,1.14,0,0,1,.58-.15,1.29,1.29,0,0,1,.45.08.87.87,0,0,1,.34.22l-.1.11a.79.79,0,0,0-.31-.2,1.15,1.15,0,0,0-.88.06.91.91,0,0,0-.48.84.92.92,0,0,0,.13.49.91.91,0,0,0,.35.35,1.07,1.07,0,0,0,.51.12.92.92,0,0,0,.62-.2Z"/><path d="M53.65,27.51l-.53-.74-.21,0h-.62v.72h-.16V25.32h.78a1,1,0,0,1,.65.19.65.65,0,0,1,.23.54.66.66,0,0,1-.51.69l.55.77Zm-.74-.86a.79.79,0,0,0,.54-.16.54.54,0,0,0,.18-.44.54.54,0,0,0-.18-.43.79.79,0,0,0-.54-.16h-.62v1.19Z"/><path d="M54.69,25.32h.16v2.19h-.16Z"/><path d="M56.27,27.38a1,1,0,0,1-.4-.4,1.16,1.16,0,0,1,0-1.14.94.94,0,0,1,.4-.39,1.14,1.14,0,0,1,.58-.15,1.23,1.23,0,0,1,.44.08.87.87,0,0,1,.34.22l-.1.11a.88.88,0,0,0-.67-.26,1,1,0,0,0-.5.12.91.91,0,0,0-.48.84,1,1,0,0,0,.12.49.93.93,0,0,0,.36.35,1,1,0,0,0,.5.12.9.9,0,0,0,.67-.26l.1.1a.79.79,0,0,1-.34.23,1.08,1.08,0,0,1-.44.08A1.24,1.24,0,0,1,56.27,27.38Z"/><path d="M58.69,27.28a.94.94,0,0,1-.23-.7V25.32h.16v1.25a.86.86,0,0,0,.18.6.66.66,0,0,0,.53.2.68.68,0,0,0,.54-.2.86.86,0,0,0,.18-.6V25.32h.16v1.26a1,1,0,0,1-.23.7.85.85,0,0,1-.65.24A.83.83,0,0,1,58.69,27.28Z"/><path d="M61.27,25.32h.16v2h1.26v.15H61.27Z"/><path d="M63.63,25.46h-.79v-.14h1.73v.14h-.78v2.05h-.16Z"/><path d="M65.45,27.28a.94.94,0,0,1-.23-.7V25.32h.16v1.25a.86.86,0,0,0,.18.6.82.82,0,0,0,1.07,0,.86.86,0,0,0,.18-.6V25.32H67v1.26a1,1,0,0,1-.23.7,1,1,0,0,1-1.29,0Z"/><path d="M69.55,27.51,69,26.77l-.22,0h-.62v.72H68V25.32h.78a1,1,0,0,1,.65.19.66.66,0,0,1,.24.54.7.7,0,0,1-.14.44.69.69,0,0,1-.38.25l.55.77Zm-.74-.86a.77.77,0,0,0,.54-.16.54.54,0,0,0,.18-.44.54.54,0,0,0-.18-.43.77.77,0,0,0-.54-.16h-.62v1.19Z"/><path d="M72,26.89H70.68l-.28.62h-.17l1-2.19h.16l1,2.19h-.17Zm-.06-.14-.58-1.26-.57,1.26Z"/><path d="M76.3,27.51V25.63l-.91,1.58H75.3l-.92-1.57v1.87h-.15V25.32h.13l1,1.69,1-1.69h.13v2.19Z"/><path d="M79,27.36v.15H77.53V25.32H79v.14h-1.3v.86h1.17v.14H77.69v.9Z"/><path d="M81.28,27.51l-.75-1-.75,1h-.19l.84-1.13-.78-1.06h.18l.7.94.7-.94h.18l-.78,1.05.84,1.14Z"/><path d="M82.15,25.32h.16v2.19h-.16Z"/><path d="M83.73,27.38a1.14,1.14,0,0,1-.4-1.54,1,1,0,0,1,.4-.39,1.17,1.17,0,0,1,.58-.15,1.23,1.23,0,0,1,.44.08.87.87,0,0,1,.34.22l-.1.11a.88.88,0,0,0-.67-.26,1.06,1.06,0,0,0-.5.12.91.91,0,0,0-.35.35.92.92,0,0,0-.13.49.9.9,0,0,0,.13.49.84.84,0,0,0,.35.35,1.06,1.06,0,0,0,.5.12.9.9,0,0,0,.67-.26l.1.1a.79.79,0,0,1-.34.23,1,1,0,0,1-.44.08A1.27,1.27,0,0,1,83.73,27.38Z"/><path d="M87.23,26.89H86l-.27.62h-.18l1-2.19h.16l1,2.19h-.17Zm-.06-.14-.57-1.26L86,26.75Z"/><path d="M90.18,25.32v2.19h-.13L88.56,25.6v1.91H88.4V25.32h.13L90,27.22v-1.9Z"/><path d="M92.61,26.89H91.34l-.28.62h-.17l1-2.19h.16l1,2.19h-.17Zm-.06-.14L92,25.49l-.57,1.26Z"/><path d="M60.63,33.56a.56.56,0,0,1-.23-.13l.06-.13a.44.44,0,0,0,.21.13.66.66,0,0,0,.28,0,.46.46,0,0,0,.29-.07.23.23,0,0,0,0-.33.57.57,0,0,0-.13-.08l-.22-.06-.27-.08a.66.66,0,0,1-.17-.12.37.37,0,0,1,0-.42.45.45,0,0,1,.18-.15.72.72,0,0,1,.31-.05l.24,0a.51.51,0,0,1,.21.1l0,.12a.72.72,0,0,0-.2-.09l-.2,0a.46.46,0,0,0-.29.07.25.25,0,0,0-.1.2.22.22,0,0,0,0,.14.32.32,0,0,0,.14.08l.21.06.27.08a.66.66,0,0,1,.17.12.33.33,0,0,1,.07.21.37.37,0,0,1-.06.21.4.4,0,0,1-.19.14.67.67,0,0,1-.3.06A.87.87,0,0,1,60.63,33.56Z"/><path d="M62,32.13h.16V33.6H62Z"/><path d="M64.12,32.13V33.6H64l-1-1.19V33.6h-.16V32.13H63l.95,1.2v-1.2Z"/><path d="M65.06,33.52a.59.59,0,0,1-.27-.27.7.7,0,0,1-.11-.38.74.74,0,0,1,.11-.39.7.7,0,0,1,.27-.27.87.87,0,0,1,.4-.09.73.73,0,0,1,.3.05.78.78,0,0,1,.24.16l-.1.1a.58.58,0,0,0-.44-.17.61.61,0,0,0-.32.08.56.56,0,0,0-.22.21.69.69,0,0,0-.08.32.65.65,0,0,0,.08.31.66.66,0,0,0,.22.22.72.72,0,0,0,.32.08.59.59,0,0,0,.44-.18l.1.1a.78.78,0,0,1-.24.16.73.73,0,0,1-.3.06A.88.88,0,0,1,65.06,33.52Z"/><path d="M67.58,33.47v.13h-1V32.13h1v.13H66.7v.53h.76v.13H66.7v.55Z"/><path d="M75.52,33.47v.13h-1v-.1l.62-.6a.93.93,0,0,0,.15-.2.35.35,0,0,0,0-.17.25.25,0,0,0-.09-.2.37.37,0,0,0-.25-.07.49.49,0,0,0-.4.16l-.11-.09a.6.6,0,0,1,.22-.16.73.73,0,0,1,.3-.05.57.57,0,0,1,.36.1.35.35,0,0,1,.13.3.54.54,0,0,1,0,.21,1.09,1.09,0,0,1-.19.25l-.5.49Z"/><path d="M76.19,33.53a.67.67,0,0,1-.21-.26,1,1,0,0,1-.07-.4,1,1,0,0,1,.07-.4.55.55,0,0,1,.21-.26.54.54,0,0,1,.31-.09.53.53,0,0,1,.3.09.55.55,0,0,1,.21.26,1,1,0,0,1,.08.4,1,1,0,0,1-.08.4.67.67,0,0,1-.21.26.53.53,0,0,1-.3.09A.54.54,0,0,1,76.19,33.53Zm.53-.12a.49.49,0,0,0,.16-.21,1.11,1.11,0,0,0,0-.66.49.49,0,0,0-.16-.21.34.34,0,0,0-.22-.07.35.35,0,0,0-.23.07.41.41,0,0,0-.15.21.94.94,0,0,0,0,.66.41.41,0,0,0,.15.21.42.42,0,0,0,.23.07A.41.41,0,0,0,76.72,33.41Z"/><path d="M78.52,33.47v.13h-1v-.1l.62-.6a.93.93,0,0,0,.15-.2.35.35,0,0,0,0-.17.25.25,0,0,0-.09-.2.37.37,0,0,0-.25-.07.49.49,0,0,0-.4.16l-.11-.09a.6.6,0,0,1,.22-.16.73.73,0,0,1,.3-.05.57.57,0,0,1,.36.1.35.35,0,0,1,.13.3.54.54,0,0,1,0,.21,1.09,1.09,0,0,1-.19.25l-.5.49Z"/><path d="M79.19,33.53a.67.67,0,0,1-.21-.26,1,1,0,0,1-.07-.4,1,1,0,0,1,.07-.4.55.55,0,0,1,.21-.26.54.54,0,0,1,.31-.09.53.53,0,0,1,.3.09.55.55,0,0,1,.21.26,1,1,0,0,1,.08.4,1,1,0,0,1-.08.4.67.67,0,0,1-.21.26.53.53,0,0,1-.3.09A.54.54,0,0,1,79.19,33.53Zm.53-.12a.49.49,0,0,0,.16-.21,1.11,1.11,0,0,0,0-.66.49.49,0,0,0-.16-.21.34.34,0,0,0-.22-.07.35.35,0,0,0-.23.07.41.41,0,0,0-.15.21.94.94,0,0,0,0,.66.41.41,0,0,0,.15.21.42.42,0,0,0,.23.07A.41.41,0,0,0,79.72,33.41Z"/><rect x="70.51" y="32.24" width="0.98" height="0.98" transform="translate(43.94 -40.62) rotate(45)"/><path d="M81.47,33.57h4.61a1.08,1.08,0,0,0,1.17-1.1c0-.69-.52-.92-.92-.77a.87.87,0,0,0-.47.85.54.54,0,0,1,.7-.38.63.63,0,0,1,.32.95c-.21.21-.66,0-1,0H82.15A.93.93,0,0,0,81.47,33.57Z"/><path d="M58.47,33.57H53.86a1.08,1.08,0,0,1-1.17-1.1c0-.69.52-.92.92-.77a.89.89,0,0,1,.48.85.55.55,0,0,0-.71-.38.63.63,0,0,0-.31.95c.2.21.65,0,1,0H57.8A.93.93,0,0,1,58.47,33.57Z"/><path d="M19,10.59c.12,0-.18-1-.28-1.28s-.22-.47-.34-.43-.09.28,0,.55S18.86,10.64,19,10.59Z"/><path d="M17.88,8.08c0,.1.22.45.34.4s0-.42,0-.52A.16.16,0,0,0,18,7.84.16.16,0,0,0,17.88,8.08Z"/><path d="M17.83,7.43c.12,0,.08-.31.05-.38s-.09-.11-.21-.06-.15.11-.12.18S17.71,7.48,17.83,7.43Z"/><path d="M13,13.23c-.22-.19-.43-.3-.51-.2s.07.28.29.47a5.19,5.19,0,0,0,1,.7l.05-.06A4.69,4.69,0,0,0,13,13.23Z"/><path d="M12.12,12.75c.08-.09-.19-.38-.27-.45a.16.16,0,0,0-.26,0,.17.17,0,0,0,0,.26C11.71,12.64,12,12.85,12.12,12.75Z"/><path d="M11.26,12c.08-.1-.09-.31-.15-.36s-.13,0-.21.05-.07.17,0,.22S11.18,12.13,11.26,12Z"/><path d="M9.93,19.49c-.28,0-.52,0-.54.09s.2.21.48.26a6,6,0,0,0,1.21.09s0-.07,0-.11A5.7,5.7,0,0,0,9.93,19.49Z"/><path d="M8.51,19.24a.17.17,0,0,0-.22.14.17.17,0,0,0,.16.21c.11,0,.5,0,.52-.09S8.62,19.26,8.51,19.24Z"/><path d="M7.56,19.08c-.07,0-.14,0-.16.15s0,.18.1.19.35,0,.37-.11S7.64,19.09,7.56,19.08Z"/><path d="M10.45,26.43c-.27.1-.47.22-.43.34s.28.09.55,0a5.94,5.94,0,0,0,1.11-.53.69.69,0,0,1,0-.1A5.32,5.32,0,0,0,10.45,26.43Z"/><path d="M9.09,26.92a.18.18,0,0,0-.12.24c0,.12.14.13.24.1s.45-.22.41-.34S9.2,26.88,9.09,26.92Z"/><path d="M8.19,27.25c-.07,0-.11.09-.07.22s.12.14.19.11.3-.16.26-.28S8.26,27.23,8.19,27.25Z"/><path d="M14.36,32.18c-.18.22-.29.43-.2.51s.29-.06.47-.28.79-1,.7-1.11h0C15.22,31.23,14.54,32,14.36,32.18Z"/><path d="M13.44,33.28c-.07.09-.09.19,0,.27a.17.17,0,0,0,.26,0c.07-.08.28-.41.18-.49S13.51,33.2,13.44,33.28Z"/><path d="M12.82,34c-.05.06-.05.14,0,.22s.17.07.22,0,.18-.29.08-.38S12.86,34,12.82,34Z"/><path d="M20.63,35.21c-.05.28,0,.51.08.54s.22-.2.27-.48S21.15,34,21,34,20.68,34.92,20.63,35.21Z"/><path d="M20.38,36.62a.17.17,0,0,0,.14.23c.12,0,.19-.06.21-.17s0-.49-.09-.51S20.4,36.51,20.38,36.62Z"/><path d="M20.44,37.27c-.12,0-.22.23-.23.3s0,.14.15.16.19,0,.2-.1S20.57,37.29,20.44,37.27Z"/><path d="M27.29,33.41c-.12,0,.18,1,.28,1.28s.22.47.34.43.09-.28,0-.55S27.41,33.36,27.29,33.41Z"/><path d="M28.39,35.92c0-.1-.22-.45-.34-.4s0,.42,0,.52a.17.17,0,0,0,.23.13A.18.18,0,0,0,28.39,35.92Z"/><path d="M28.44,36.57c-.12,0-.08.31-.05.38s.09.11.21.06.15-.11.12-.18S28.56,36.52,28.44,36.57Z"/><path d="M33.55,30.5c-.22-.18-1-.79-1.12-.7s.67.79.89,1,.43.3.51.2S33.76,30.69,33.55,30.5Z"/><path d="M34.15,31.25c-.08.09.19.38.27.45a.16.16,0,0,0,.26,0,.17.17,0,0,0,0-.26C34.56,31.36,34.24,31.15,34.15,31.25Z"/><path d="M35,32c-.08.1.09.31.15.36s.13,0,.22,0,.06-.17,0-.22S35.09,31.87,35,32Z"/><path d="M36.4,24.16c-.28-.05-1.29-.18-1.31-.05s1,.35,1.25.4.52,0,.54-.09S36.68,24.21,36.4,24.16Z"/><path d="M37.82,24.41c-.11,0-.5,0-.52.09s.35.24.46.26a.17.17,0,0,0,.22-.14A.17.17,0,0,0,37.82,24.41Z"/><path d="M38.77,24.58c-.08,0-.35,0-.37.11s.23.22.31.23.14,0,.16-.15S38.84,24.59,38.77,24.58Z"/><path d="M35.83,17.57c.26-.1.47-.22.42-.34s-.28-.09-.55,0-1.2.49-1.16.61S35.56,17.67,35.83,17.57Z"/><path d="M37.3,16.84c0-.12-.14-.13-.24-.1s-.45.22-.41.34.42,0,.53,0A.18.18,0,0,0,37.3,16.84Z"/><path d="M38,16.42c-.07,0-.3.16-.26.28s.31.07.38.05.11-.09.07-.21S38,16.39,38,16.42Z"/><path d="M31.91,11.82c.18-.22.29-.43.2-.51s-.29.06-.47.28-.8,1-.7,1.11S31.73,12,31.91,11.82Z"/><path d="M32.83,10.72c.07-.09.09-.19,0-.27a.17.17,0,0,0-.26,0c-.07.08-.28.41-.18.49S32.76,10.8,32.83,10.72Z"/><path d="M33.45,10c0-.06,0-.14,0-.22s-.18-.07-.23,0-.18.29-.08.38S33.41,10,33.45,10Z"/><path d="M25.64,8.8c.05-.29,0-.52-.08-.55s-.22.2-.27.48-.17,1.29-.05,1.32S25.59,9.08,25.64,8.8Z"/><path d="M25.89,7.38c0-.11,0-.2-.14-.22s-.19,0-.21.16,0,.49.09.51S25.87,7.49,25.89,7.38Z"/><path d="M25.83,6.73c.12,0,.22-.23.23-.3s0-.14-.15-.17-.19,0-.2.11S25.7,6.71,25.83,6.73Z"/><path d="M13.83,14.14l-.05.06s.05,0,.06,0S13.84,14.17,13.83,14.14Z"/><path d="M11.1,19.82s0,.08,0,.11.1,0,.1,0S11.15,19.84,11.1,19.82Z"/><path d="M11.73,26.15s0,0-.09,0a.69.69,0,0,0,0,.1S11.74,26.17,11.73,26.15Z"/><polygon points="15.33 31.3 15.33 31.3 15.33 31.3 15.33 31.3"/><path d="M34,22a10.78,10.78,0,0,0-7.38-10.23,4.09,4.09,0,0,1-1.4,2.06,8.33,8.33,0,0,1-2.7.93c.5-.86,0-1.21.08-2.62a2.21,2.21,0,0,1,.22-.9,10.72,10.72,0,0,0-7.18,3.1,58.9,58.9,0,0,1,7.26,3.53,4.94,4.94,0,0,1,5.53.4c2.26,1.59,5,6,3.72,7.84S26,26.55,23.7,25s-3-4.28-1.77-6.13a56.54,56.54,0,0,0-7.22-3.43,10.72,10.72,0,0,0-1.85,3.68,6,6,0,0,1,2.05-.42A16,16,0,0,1,20.25,20c-1.7.88-1.35,1.9-2.87,4.15a6.86,6.86,0,0,1-3.95,2.36,10.8,10.8,0,0,0,6.45,5.77,5.68,5.68,0,0,1,.94-3.93,10.33,10.33,0,0,1,2.87-2c-.29,1.2.36,1.46.81,3.13a4.89,4.89,0,0,1-.75,3.35A10.77,10.77,0,0,0,34,22Z"/><g class="cls-2"><path class="cls-3" d="M13.93,13.85c-.06-.06-.23-.07-.24,0S13.92,14,13.93,13.85Z"/><path class="cls-3" d="M20.85,14.62a.42.42,0,0,0-.29.08C20.72,14.7,20.82,14.79,20.85,14.62Z"/><path class="cls-3" d="M28.39,13.59c.07-.15.07-.15-.16-.1C28.29,13.52,28.24,13.64,28.39,13.59Z"/><path class="cls-3" d="M29.59,14.57c.18.32.21.17.24-.19C29.76,14.48,29.63,14.38,29.59,14.57Z"/><path class="cls-3" d="M28.6,16.87c0,.12-.2.15,0,.2C28.64,17,28.83,16.86,28.6,16.87Z"/><path class="cls-3" d="M23.24,29.08V29c-.07,0-.18,0-.19,0S23.09,29.13,23.24,29.08Z"/><path class="cls-3" d="M20,29.69c0-.17-.17-.1-.28-.08S19.94,29.67,20,29.69Z"/><path class="cls-3" d="M33.72,19.56l-.26,0C33.46,19.72,33.82,19.68,33.72,19.56Z"/><path class="cls-3" d="M25.1,20.52c-.12,0-.35-.05-.38,0C24.88,20.64,25,20.65,25.1,20.52Z"/><path class="cls-3" d="M2.43,21.45c0-.77-.18,0-.24,0C2.3,21.4,2.29,21.49,2.43,21.45Z"/><path class="cls-3" d="M18.94,23.77c.13,0,.12-.08.14-.16h-.19C18.88,23.69,19,23.7,18.94,23.77Z"/><path class="cls-3" d="M27.06,26.55c-.12-.09-.44-.46-.43-.39C26.83,26.33,26.92,26.64,27.06,26.55Z"/><path class="cls-3" d="M21,26.38a.21.21,0,0,0,.28,0C21.09,26.35,21,26.23,21,26.38Z"/><path class="cls-3" d="M25.62,30.36c.07-.06.1-.32-.09-.28C25.53,30.26,25.44,30.3,25.62,30.36Z"/><path class="cls-3" d="M15.7,30.61c0,.15-.24,0-.15.2S15.91,30.62,15.7,30.61Z"/><path class="cls-3" d="M14.88,31.87c.13.12.19-.11.29,0,0-.11-.17-.23-.24-.12s.1,0,.1,0S14.9,31.82,14.88,31.87Z"/><path class="cls-3" d="M23.09,31.91c-.44-.14-.19.18,0,0Z"/><path class="cls-3" d="M26.15,31.91c-.19,0-.06.22-.1.32C26.33,32.18,26,32,26.15,31.91Z"/><path class="cls-3" d="M34.45,33.39c-.07-.07.08-.2.24-.33-.16,0-.16.13-.34.19C34.33,33.37,34.33,33.46,34.45,33.39Z"/><path class="cls-3" d="M41.47,32.55c.05,0-.88-.66-.1.09C41.37,32.59,41.46,32.6,41.47,32.55Z"/><path class="cls-3" d="M20,13.56c.15,0,.29-.16.19-.2,0,.2-.08-.09.05-.08-.11,0-.21-.09-.24,0s.09.11.14.16S20,13.47,20,13.56Z"/><path class="cls-3" d="M20.18,13.64c0-.13.43.07.29,0s-.06,0,0,0,.09,0,.1,0-.18.06-.24,0c.18-.11.08-.09.24-.08-.06,0,0,0,0-.08C20.31,13.35,20.15,13.59,20.18,13.64Z"/><path class="cls-3" d="M15.7,25.79c.09,0,0-.07.05-.08s.05,0,0,0-.2.17-.09.2a.19.19,0,0,1,.14-.12.17.17,0,0,0-.05-.16c.11-.08.06,0,.15,0a.15.15,0,0,1,.05-.12c-.19,0,0-.07-.1-.13.06,0,.11.08.14,0s-.18,0-.19-.08c.16,0,.07-.08,0-.08s-.08.08,0,.16-.05,0-.09,0,0-.2-.05-.12.13.23,0,.21C15.77,25.65,15.59,25.88,15.7,25.79Z"/><path class="cls-3" d="M18.08,25.91a.37.37,0,0,0,.2,0s0,.1,0,0,.07-.23-.09-.28c0,.19-.13,0-.19.16-.05-.08.14-.14,0-.16s0,.08-.05.08,0-.05,0,0,0,.14,0,.16S18.19,25.73,18.08,25.91Z"/><path class="cls-3" d="M24.86,13.89s-.09.09,0,.12.05,0,.09,0,0-.08.05-.08,0,.08.05.08v-.12c-.16,0-.1-.16-.24-.17a.2.2,0,0,0,0,.25C24.77,13.92,24.82,13.9,24.86,13.89Z"/><path class="cls-3" d="M31.35,14.25c-.54-.09.54-.09,0-.24,0,0,.15-.22.05-.12s-.18,0-.2.08.19.16.1.16c-.85-.63-.08.16-.14.12S31.31,14.32,31.35,14.25Z"/><path class="cls-3" d="M21.85,14.25s0,0,.1,0-.19-.13-.05-.16.12.16.14,0,0-.07,0-.08-.32-.13-.2,0,0,.16,0,.16c-.13-.16-.09-.19-.14,0C21.79,14.14,21.76,14.25,21.85,14.25Z"/><path class="cls-3" d="M14.07,14.09s0,.11,0,.12c0-.16.21-.08.24-.12s-.06,0-.05,0-.12-.05-.19,0,0-.05-.05,0S14.08,14.06,14.07,14.09Z"/><path class="cls-3" d="M30.64,14.62a.65.65,0,0,0,.32.06c-.15,0-.15-.13-.32-.31C30.75,14.52,30.54,14.51,30.64,14.62Z"/><path class="cls-3" d="M29.62,13.57a1.71,1.71,0,0,1,.33-.33c-.27,0-.34.42-.62.31C29.43,13.69,29.51,13.45,29.62,13.57Z"/><path class="cls-3" d="M22.19,15c.06.11,0,.13,0,.17s.17-.08.15-.21c0,.16-.33-.07-.29.09C22.1,15,22.13,15,22.19,15Z"/><path class="cls-3" d="M29.84,13.69c-.09.14-.09.14,0,.14S29.76,13.59,29.84,13.69Z"/><path class="cls-3" d="M22.38,15.15c-.22.08-.22.06-.38,0,0,.08.06.08.09.12s-.07.06,0,.08a.44.44,0,0,1,.34-.08A.06.06,0,0,1,22.38,15.15Z"/><path class="cls-3" d="M23,15.27c0-.08.19.07.19-.08s-.32-.14-.19,0C23.1,15.08,22.82,15.28,23,15.27Z"/><path class="cls-3" d="M23.81,27.58s0,0,0,0,.34,0,.15-.12c0,.05-.08,0-.15,0s0-.14.1-.2-.28,0-.19,0-.07.07,0,.16S23.81,27.54,23.81,27.58Z"/><path class="cls-3" d="M33.42,14.15c-.52.29-.2.29.15.29C33.6,14.28,33.39,14.31,33.42,14.15Z"/><path class="cls-3" d="M19.28,27.5c.09.13-.19.13-.05.16s.08-.07.14-.08,0,.2.1.16S19.39,27.54,19.28,27.5Z"/><path class="cls-3" d="M17.27,27.86c0-.15.21-.23,0-.28-.09.1.05.14-.09.2C17.24,27.78,17.22,27.85,17.27,27.86Z"/><path class="cls-3" d="M16,27.7s0,.11,0,.12,0-.15-.15-.12,0,.08-.05.08,0,0,0,0c.14,0-.11.07-.1.12a2,2,0,0,1,.53-.08.23.23,0,0,0,.14.13c0-.06.08,0,.09-.09a.29.29,0,0,0-.14,0C16.26,27.79,16,27.66,16,27.7Z"/><path class="cls-3" d="M31,15.82a.79.79,0,0,1,0-.23.42.42,0,0,0,.16.39s0-.13-.07-.07S31,15.86,31,15.82Z"/><path class="cls-3" d="M31.2,15.08s.9-.14.08-.09C31.23,15,31.14,15.05,31.2,15.08Z"/><path class="cls-3" d="M34.57,14.86c-.13.45.1.27.3.17C34.76,15,34.72,14.74,34.57,14.86Z"/><path class="cls-3" d="M21,16.25c.07-.12.17.07.29,0s-.1-.23-.14-.13.11,0,.09.09-.1-.13-.24-.13C21,16.19,20.92,16.23,21,16.25Z"/><path class="cls-3" d="M20.18,16.37c.08-.09.17.15.24.2-.12,0-.25-.18-.24,0,.06,0,.34.1.34,0C20.46,16.56,20.15,16.15,20.18,16.37Z"/><path class="cls-3" d="M14,16.94c0-.18.29-.24.2-.37S13.82,16.85,14,16.94Z"/><path class="cls-3" d="M28,19.11a.36.36,0,0,1,.06.24c-.51-.22.52-.27-.21-.41,0,.12-.05.36.07.46S27.77,19.13,28,19.11Z"/><path class="cls-3" d="M17.8,16.86s0,0,0,0-.21-.12-.28,0C17.74,16.92,17.61,16.92,17.8,16.86Z"/><path class="cls-3" d="M29.93,17.07c-.37.35.1-.05.15.06C30.06,16.93,30.14,17,29.93,17.07Z"/><path class="cls-3" d="M29.06,16.13c-.15.05-.29,0-.18-.11,0,.16.18.18.06.43C29.12,16.24,29,16.13,29.06,16.13Z"/><path class="cls-3" d="M29.1,16.46c.39-.18,0-.26.07-.38C29.18,16.26,29,16.35,29.1,16.46Z"/><path class="cls-3" d="M29.43,17.66c.14.08.14.08.14-.05C29.48,17.73,29.49,17.54,29.43,17.66Z"/><path class="cls-3" d="M22.91,30.51c-.1,0,.07-.11-.1-.12,0,.09-.21,0-.24,0s-.05.12,0,.16C22.61,30.35,22.9,30.58,22.91,30.51Z"/><path class="cls-3" d="M14.79,30.75c0,.06-.08,0-.09.08s.06.06.14,0,0,0,.05-.08a.06.06,0,0,1-.05-.08c-.15,0-.38.11-.29.16S14.67,30.76,14.79,30.75Z"/><path class="cls-3" d="M31.6,18.38c-.12.06-.37-.22-.35,0,.11,0,.22-.11.34-.1,0,.25-.44.22-.31.35s.31-.35.67-.34l-.22.25c.11-.12.5,0,.26-.31C31.77,18.22,31.73,18.35,31.6,18.38Z"/><path class="cls-3" d="M27.14,19a.76.76,0,0,1,.06-.39c-.33.12.49.41-.25.41Z"/><path class="cls-3" d="M31.87,19.53c-.76,0-.73.08,0,.14C31.82,19.62,31.81,19.58,31.87,19.53Z"/><path class="cls-3" d="M31.9,19.67c.18.21.18-.12.3,0A.33.33,0,0,0,31.9,19.67Z"/><path class="cls-3" d="M20.57,33.32s-.16.15-.05.16.14-.08.09-.21-.33.15-.23.21A.34.34,0,0,1,20.57,33.32Z"/><path class="cls-3" d="M31,23.25a.39.39,0,0,0,.18,0c-.41-.14-.56-.55-.89-.55C30.88,23,30.69,23.08,31,23.25Z"/><path class="cls-3" d="M16.51,22.15c.06.17-.14.12-.19.2s.12,0,0,.08,0-.05,0,0,.13-.13.24-.16.2.08,0,.12c0,0,0-.05,0,0,.16.11.15-.16.09-.2C16.64,22.38,16.56,22.16,16.51,22.15Z"/><path class="cls-3" d="M18.65,22.31s.06-.07.1-.08-.05.1.05.12,0-.12.05-.12,0,.17,0,.08.12-.22.05-.12-.25-.1-.29,0C18.77,22.17,18.5,22.41,18.65,22.31Z"/><path class="cls-3" d="M22.81,35s-.21-.12-.09,0,.18.16.19.09,0-.17-.05-.25c-.24.08,0,0-.19-.08,0,.17,0,.16.19.12C22.74,34.92,22.94,35,22.81,35Z"/><path class="cls-3" d="M22.33,35.63s0,.06.05,0-.05-.09-.05-.17.06,0,0,0a.19.19,0,0,1-.14.12c0-.07.07-.1,0-.12C22.06,35.64,22.27,35.59,22.33,35.63Z"/><path class="cls-3" d="M28.83,27c.5.22.19-.17.37-.25C29.21,26.9,29,26.89,28.83,27Z"/><path class="cls-3" d="M20.61,24.75c.12-.22.12.14.24-.12,0,0-.09,0-.1,0s-.14.16-.19,0,.32-.21.19,0h.15c-.08-.15,0-.33,0-.41-.19.13,0-.08-.05-.08s0,0-.09,0,0,.15-.05.16,0-.18-.05-.08,0,.07-.09.12C20.62,24.47,20.43,24.63,20.61,24.75Z"/><path class="cls-3" d="M30.65,24.38c0-.05.16-.05.16-.05-.31-.26-.31.26-.44.16C30.6,24.5,30.35,24.33,30.65,24.38Z"/><path class="cls-3" d="M28.66,27c.05,0-.1,0-.16,0S28.71,27.05,28.66,27Z"/><path class="cls-3" d="M20.13,24.91c0-.18-.19,0-.24,0v-.16c-.14,0-.11.14-.14.24C20,25,20,24.81,20.13,24.91Z"/><path class="cls-3" d="M29.25,27.5c1.79.76.08.76.1,0C29.28,27.55,29.36,27.41,29.25,27.5Z"/><path class="cls-3" d="M27.09,26.83c.07.13-.08.26.23.26a.56.56,0,0,1-.24-.31S27.12,26.82,27.09,26.83Z"/><path class="cls-3" d="M28.26,27.58c-.32-.23.61.42.12-.08C28.31,27.54,28.21,27.51,28.26,27.58Z"/><path class="cls-3" d="M30.46,25.53c.9.07.38-.07-.06-.05C30.41,25.4,30.56,25.51,30.46,25.53Z"/><path class="cls-3" d="M21.23,25.4c0,.05-.08,0-.09.08s.16.16,0,.12c0,0,0,0,0-.08s-.24-.16-.28-.08.05,0,.05,0-.06,0,0,0,.08-.05.09,0-.16,0-.14.12.16,0,.05,0a.29.29,0,0,0,.14,0c0,.06.18.16.19.08S21.3,25.43,21.23,25.4Z"/><path class="cls-3" d="M29.85,28.05C29.8,28,30,28,30,28S29.71,28.11,29.85,28.05Z"/><path class="cls-3" d="M20.56,26.86c.22-.05.19.12.39.09s0-.62-.1-.49c.11,0,0,.25,0,.36S20.43,26.8,20.56,26.86Z"/><path class="cls-3" d="M28.3,26.74s.05,0,0,0-.06,0-.1,0c-.07.12,0,.14-.05.25.13.07.18,0,.29.08,0-.18.09,0,.09-.08s.08-.07,0-.13S28.37,26.81,28.3,26.74Z"/><path class="cls-3" d="M31.68,25.73c0-.08.6-.08.09-.29C31.83,25.59,31.52,25.63,31.68,25.73Z"/><path class="cls-3" d="M33.25,26.05c.14,0,.33-.11.24-.08s-.13,0-.24-.08c.09.23,0,0-.09.08S33.23,26,33.25,26.05Z"/><path class="cls-3" d="M30.2,26.22c0-.06.24-.09.09-.13,0,0,0,.05-.05,0s.07-.09,0-.12S30,26.18,30.2,26.22Z"/><path class="cls-3" d="M24.48,28.94c.05,0,.19,0,.24-.16s-.06,0,0,0,0,0,0,0-.05,0-.1-.05-.05,0-.09,0c0,.14.1.18-.05.25s0-.1-.05,0S24.44,28.92,24.48,28.94Z"/><path class="cls-3" d="M26.15,29.06c0,.05,0,.07-.1.08s0,.13.05.17.08,0,.1-.09c-.2,0,0-.08,0-.2s-.26-.13-.15,0,.06,0,.05,0-.12,0-.05,0S26.13,29,26.15,29.06Z"/><path class="cls-3" d="M22.85,31s.06,0,0,0,.08.11.1.21-.05,0,0,0,.19.05.24-.08C23,31.05,22.92,31.14,22.85,31Z"/><path class="cls-3" d="M18.61,31.46s.05,0,0,0,0,0,0,0c.12-.16,0,.14.1,0s0-.06.05-.08,0,.11.09.12.12-.15.05-.2C18.91,31.52,18.64,31.37,18.61,31.46Z"/><path class="cls-3" d="M6.67,31.58s.06,0,0,0c-.09.16-.19-.16-.23,0s-.07,0,.14.21c0,0-.08-.06-.1,0s0,.07.1.08,0-.08,0-.08-.1-.08-.1-.17h.14c0,.09.08.2.1.09s0-.05,0-.09S6.68,31.62,6.67,31.58Z"/><path class="cls-3" d="M33.86,29.23c0,.07-.18.07-.18.2h.47c-.16-.78-.16,0-.36-.05C33.85,29.35,33.94,29.21,33.86,29.23Z"/><path class="cls-3" d="M3.62,31.79h0c-.11-.05-.22.09-.23,0a.15.15,0,0,1,.23,0h0s.06.07,0,0,0,0,0-.12H3.38a.17.17,0,0,1,0,.12C3.42,31.84,3.55,31.91,3.62,31.79Z"/><path class="cls-3" d="M13,32c0-.05-.19-.21-.28-.08C12.88,32.12,13.56,32,13,32Z"/><path class="cls-3" d="M42.37,31.48c-.08-.76.08,0,.08,0,.15-.26-.31,0-.25-.24C42.29,31.36,42.12,31.49,42.37,31.48Z"/><path class="cls-3" d="M14.54,35.12c1,.06,0-.07,0-.12S14.47,35.1,14.54,35.12Z"/><path class="cls-3" d="M12.55,32c0,.1-.17.18-.05.2s.36,0,.24,0A.6.6,0,0,1,12.55,32Z"/><path class="cls-3" d="M13,32.15c-.14,0-.2-.22-.33-.08,0,.07.23,0,.19.12S13,32.2,13,32.15Z"/><path class="cls-3" d="M42.38,32.7a2,2,0,0,0-.52.08,1.54,1.54,0,0,0,.37.15C42,32.74,42.55,32.73,42.38,32.7Z"/><path class="cls-3" d="M21.09,34.15c-.07,0,0,.15-.1.16s.14-.17,0-.2,0,.08,0,.08,0,.07,0,.16S21.21,34.2,21.09,34.15Z"/><path class="cls-3" d="M34,34.17c-.1.07-.1.2-.1.33,0-.13,0-.13.14-.14C33.87,34.41,34.13,34.17,34,34.17Z"/></g></g></svg>