<svg xmlns="http://www.w3.org/2000/svg" xmlns:xlink="http://www.w3.org/1999/xlink" viewBox="0 0 99.5 100.75"><defs><style>.cls-1{fill:none;}.cls-2{clip-path:url(#clip-path);}.cls-3{fill:#fff;fill-rule:evenodd;}</style><clipPath id="clip-path"><path class="cls-1" d="M63.59,24.18a14.19,14.19,0,0,0-9.71-13.45A5.27,5.27,0,0,1,52,13.43a10.8,10.8,0,0,1-3.54,1.24c.65-1.14.07-1.59.1-3.45A3.3,3.3,0,0,1,48.88,10a14.14,14.14,0,0,0-9.44,4.08A77.77,77.77,0,0,1,49,18.75a6.53,6.53,0,0,1,7.28.52c3,2.1,6.61,7.89,4.89,10.32S53,30.18,50,28.08,46.1,22.44,47.69,20a73.55,73.55,0,0,0-9.48-4.5,14.12,14.12,0,0,0-2.44,4.83,7.78,7.78,0,0,1,2.7-.55c2.86-.1,7,1.72,7,1.72C43.25,22.67,43.72,24,41.72,27c-1.18,1.75-3.5,2.65-5.2,3.1A14.25,14.25,0,0,0,45,37.66a7.5,7.5,0,0,1,1.24-5.17A13.32,13.32,0,0,1,50,29.82c-.39,1.57.46,1.91,1.06,4.11.43,1.59-.47,3.47-1,4.4A14.17,14.17,0,0,0,63.59,24.18Z"/></clipPath></defs><title>Mesa de trabajo 21</title><g id="Capa_2" data-name="Capa 2"><path d="M43.82,9.2c.16-.06-.23-1.34-.36-1.69S43.16,6.89,43,7s-.12.37,0,.72S43.67,9.26,43.82,9.2Z"/><path d="M42.37,5.89c.05.14.29.59.44.53s0-.55,0-.69a.23.23,0,0,0-.31-.16A.23.23,0,0,0,42.37,5.89Z"/><path d="M42.31,5c.16,0,.1-.4.07-.5s-.12-.14-.28-.08-.19.15-.16.24S42.15,5.1,42.31,5Z"/><path d="M35.9,12.66c-.29-.24-.57-.39-.68-.26s.09.37.38.62a6.5,6.5,0,0,0,1.38.92l.07-.08A6.79,6.79,0,0,0,35.9,12.66Z"/><path d="M34.79,12c.11-.13-.23-.5-.34-.6a.23.23,0,0,0-.35,0,.22.22,0,0,0,0,.34C34.26,11.89,34.69,12.17,34.79,12Z"/><path d="M33.67,11.09c.11-.12-.12-.4-.19-.46s-.18-.07-.29.06-.09.23,0,.3S33.56,11.22,33.67,11.09Z"/><path d="M31.92,20.9c-.37-.07-.68-.06-.71.11s.26.28.63.35a8.27,8.27,0,0,0,1.59.12l0-.15A7.57,7.57,0,0,0,31.92,20.9Z"/><path d="M30.06,20.57c-.14,0-.27,0-.3.18A.24.24,0,0,0,30,21c.14,0,.65,0,.68-.12S30.2,20.59,30.06,20.57Z"/><path d="M28.81,20.35c-.1,0-.19,0-.22.2s0,.24.14.26.45,0,.48-.15S28.91,20.37,28.81,20.35Z"/><path d="M32.6,30c-.36.13-.62.3-.56.45s.36.12.72,0a7.57,7.57,0,0,0,1.46-.71s0-.08,0-.13A7.7,7.7,0,0,0,32.6,30Z"/><path d="M30.82,30.67c-.13,0-.22.15-.16.3a.23.23,0,0,0,.32.14c.13-.05.59-.29.53-.44S31,30.62,30.82,30.67Z"/><path d="M29.63,31.1c-.09,0-.14.12-.09.28s.16.19.25.16.4-.22.34-.37S29.72,31.07,29.63,31.1Z"/><path d="M37.75,37.58c-.25.29-.39.57-.26.67s.37-.08.61-.37,1-1.34.93-1.45h0C38.88,36.33,38,37.3,37.75,37.58Z"/><path d="M36.53,39a.24.24,0,1,0,.36.3c.09-.11.36-.54.24-.65S36.62,38.92,36.53,39Z"/><path d="M35.72,40c-.07.08-.07.18.06.29s.23.09.29,0,.24-.38.11-.49S35.78,39.93,35.72,40Z"/><path d="M46,41.56c-.07.37-.06.68.11.71s.28-.26.34-.63.24-1.7.07-1.73S46.05,41.19,46,41.56Z"/><path d="M45.66,43.42a.23.23,0,0,0,.18.3.24.24,0,0,0,.28-.22c0-.14,0-.65-.12-.68S45.68,43.28,45.66,43.42Z"/><path d="M45.74,44.27c-.16,0-.29.3-.3.4s0,.19.2.21.24,0,.26-.13S45.91,44.3,45.74,44.27Z"/><path d="M54.74,39.19c-.16.06.24,1.34.37,1.69s.29.62.45.56.11-.36,0-.72S54.9,39.14,54.74,39.19Z"/><path d="M56.19,42.5c0-.14-.28-.59-.44-.53s0,.55,0,.69a.22.22,0,0,0,.3.16A.22.22,0,0,0,56.19,42.5Z"/><path d="M56.25,43.35c-.15.06-.09.41-.06.5s.12.14.28.09.19-.16.16-.25S56.41,43.29,56.25,43.35Z"/><path d="M63,35.38c-.29-.24-1.35-1.05-1.46-.93s.87,1,1.16,1.28.56.39.67.26S63.26,35.62,63,35.38Z"/><path d="M63.77,36.35c-.11.13.24.51.35.6a.24.24,0,1,0,.3-.36C64.31,36.5,63.88,36.23,63.77,36.35Z"/><path d="M64.9,37.3c-.11.12.12.4.19.46s.18.07.29-.06.09-.23,0-.29S65,37.17,64.9,37.3Z"/><path d="M66.73,27C66.36,27,65,26.8,65,27s1.28.46,1.65.52.68.06.71-.11S67.1,27.1,66.73,27Z"/><path d="M68.59,27.36c-.14,0-.65,0-.68.12s.46.32.6.34a.22.22,0,0,0,.29-.18C68.83,27.47,68.73,27.39,68.59,27.36Z"/><path d="M69.84,27.58c-.1,0-.46,0-.49.15s.31.3.41.31.18,0,.21-.2S69.93,27.6,69.84,27.58Z"/><path d="M66,18.37c.35-.13.62-.29.56-.45s-.37-.11-.72,0-1.59.65-1.53.81S65.62,18.5,66,18.37Z"/><path d="M67.91,17.42a.22.22,0,0,0-.32-.13c-.14.05-.59.28-.53.44s.55,0,.69,0A.22.22,0,0,0,67.91,17.42Z"/><path d="M68.78,16.85c-.1,0-.4.22-.34.37s.4.1.5.07.14-.12.08-.28S68.87,16.82,68.78,16.85Z"/><path d="M60.82,10.81c.24-.29.39-.57.26-.67s-.37.08-.62.37-1.05,1.35-.92,1.46S60.58,11.1,60.82,10.81Z"/><path d="M62,9.36A.23.23,0,0,0,62,9a.22.22,0,0,0-.34.05c-.09.11-.37.54-.24.65S61.94,9.47,62,9.36Z"/><path d="M62.85,8.39c.06-.08.07-.18-.06-.29s-.23-.09-.3,0-.23.38-.11.49S62.79,8.46,62.85,8.39Z"/><path d="M52.58,6.83c.07-.37.05-.68-.11-.71s-.28.26-.35.63-.23,1.7-.06,1.73S52.52,7.2,52.58,6.83Z"/><path d="M52.91,5a.22.22,0,0,0-.19-.29c-.16,0-.24.07-.27.21s-.05.65.12.68S52.89,5.11,52.91,5Z"/><path d="M52.82,4.12c.17,0,.29-.3.31-.4s0-.18-.2-.21-.24,0-.26.13S52.66,4.09,52.82,4.12Z"/><path d="M37.05,13.86l-.07.08h.08S37.06,13.9,37.05,13.86Z"/><path d="M33.46,21.33l0,.15c.08,0,.13,0,.14-.06S33.52,21.36,33.46,21.33Z"/><path d="M34.29,29.65s-.06,0-.12,0,0,.09,0,.13S34.3,29.68,34.29,29.65Z"/><polygon points="39.02 36.42 39.02 36.43 39.02 36.42 39.02 36.42"/><path d="M63.59,24.18a14.19,14.19,0,0,0-9.71-13.45A5.27,5.27,0,0,1,52,13.43a10.8,10.8,0,0,1-3.54,1.24c.65-1.14.07-1.59.1-3.45A3.3,3.3,0,0,1,48.88,10a14.14,14.14,0,0,0-9.44,4.08A77.77,77.77,0,0,1,49,18.75a6.53,6.53,0,0,1,7.28.52c3,2.1,6.61,7.89,4.89,10.32S53,30.18,50,28.08,46.1,22.44,47.69,20a73.55,73.55,0,0,0-9.48-4.5,14.12,14.12,0,0,0-2.44,4.83,7.78,7.78,0,0,1,2.7-.55c2.86-.1,7,1.72,7,1.72C43.25,22.67,43.72,24,41.72,27c-1.18,1.75-3.5,2.65-5.2,3.1A14.25,14.25,0,0,0,45,37.66a7.5,7.5,0,0,1,1.24-5.17A13.32,13.32,0,0,1,50,29.82c-.39,1.57.46,1.91,1.06,4.11.43,1.59-.47,3.47-1,4.4A14.17,14.17,0,0,0,63.59,24.18Z"/><g class="cls-2"><path class="cls-3" d="M37.18,13.47c-.08-.07-.31-.08-.31.06S37.17,13.61,37.18,13.47Z"/><path class="cls-3" d="M46.28,14.49a.59.59,0,0,0-.38.11C46.11,14.6,46.24,14.71,46.28,14.49Z"/><path class="cls-3" d="M56.19,13.14c.09-.2.09-.2-.21-.13C56.07,13,56,13.2,56.19,13.14Z"/><path class="cls-3" d="M57.77,14.42c.23.43.27.23.31-.24C58,14.31,57.82,14.18,57.77,14.42Z"/><path class="cls-3" d="M56.47,17.45c0,.16-.26.19,0,.27C56.52,17.67,56.77,17.44,56.47,17.45Z"/><path class="cls-3" d="M49.42,33.51v-.16c-.09,0-.23,0-.25,0S49.22,33.57,49.42,33.51Z"/><path class="cls-3" d="M45.22,34.31c0-.23-.23-.14-.38-.1S45.09,34.28,45.22,34.31Z"/><path class="cls-3" d="M63.2,21l-.34,0C62.86,21.19,63.34,21.15,63.2,21Z"/><path class="cls-3" d="M51.86,22.25c-.15,0-.45-.07-.5.05C51.58,22.4,51.71,22.42,51.86,22.25Z"/><path class="cls-3" d="M22.05,23.48c0-1-.23,0-.31-.05C21.89,23.4,21.88,23.52,22.05,23.48Z"/><path class="cls-3" d="M43.77,26.53c.16,0,.16-.12.19-.22h-.25C43.69,26.41,43.78,26.43,43.77,26.53Z"/><path class="cls-3" d="M54.44,30.18c-.15-.12-.57-.61-.56-.51C54.15,29.89,54.26,30.29,54.44,30.18Z"/><path class="cls-3" d="M46.4,30a.29.29,0,0,0,.38-.05C46.59,29.92,46.46,29.76,46.4,30Z"/><path class="cls-3" d="M52.55,35.19c.1-.08.13-.42-.12-.37C52.43,35.05,52.32,35.11,52.55,35.19Z"/><path class="cls-3" d="M39.5,35.51c.06.2-.31,0-.19.27C39.53,35.86,39.79,35.53,39.5,35.51Z"/><path class="cls-3" d="M38.43,37.17c.17.17.24-.14.38,0,0-.14-.22-.3-.31-.16s.12,0,.12.05A.19.19,0,0,0,38.43,37.17Z"/><path class="cls-3" d="M49.23,37.22c-.58-.18-.26.25,0,0Z"/><path class="cls-3" d="M53.24,37.22c-.24,0-.07.3-.12.43C53.48,37.58,53.09,37.4,53.24,37.22Z"/><path class="cls-3" d="M64.16,39.17c-.1-.08.11-.26.31-.43-.2,0-.2.17-.45.25C64,39.14,64,39.27,64.16,39.17Z"/><path class="cls-3" d="M73.39,38.07c.06,0-1.16-.87-.14.12C73.26,38.12,73.37,38.14,73.39,38.07Z"/><path class="cls-3" d="M45.21,13.1c.2,0,.38-.21.25-.27-.06.26-.1-.11.07-.1-.15,0-.27-.12-.32,0,.13,0,.13.14.19.21C45.3,13,45.18,13,45.21,13.1Z"/><path class="cls-3" d="M45.4,13.21c0-.18.56.09.38-.06,0,0-.08,0-.07-.05s.13,0,.13,0c-.18,0-.23.07-.31,0,.24-.14.11-.12.31-.11-.08,0,0-.06,0-.11C45.57,12.82,45.36,13.13,45.4,13.21Z"/><path class="cls-3" d="M39.51,29.18c.11,0,0-.09.06-.11s.07,0,.06.05-.27.23-.12.27a.29.29,0,0,1,.18-.16.23.23,0,0,0-.06-.21c.15-.11.07,0,.19.05a.26.26,0,0,1,.06-.16c-.25,0,0-.08-.12-.16.07,0,.14.09.18,0s-.24,0-.25-.11c.21,0,.1-.1,0-.1s-.1.1,0,.21c-.06,0-.07,0-.12.05s0-.27-.06-.16.17.3-.07.27C39.6,29,39.37,29.3,39.51,29.18Z"/><path class="cls-3" d="M42.64,29.34a.43.43,0,0,0,.25-.05c0,.05,0,.13.07.05s.09-.3-.13-.38c0,.25-.17.05-.25.22-.06-.1.19-.18,0-.22,0,.05,0,.11-.06.11s-.05-.06-.06,0c.15,0,0,.18,0,.22S42.78,29.1,42.64,29.34Z"/><path class="cls-3" d="M51.55,13.53c0,.06-.11.12,0,.16s.07,0,.13,0,0-.11.06-.11,0,.11.06.11v-.16c-.2,0-.13-.21-.31-.22a.24.24,0,0,0-.06.32C51.44,13.57,51.49,13.55,51.55,13.53Z"/><path class="cls-3" d="M60.09,14c-.72-.13.71-.13.06-.32.05,0,.2-.29.06-.16s-.23,0-.25.1.24.21.13.22c-1.13-.83-.11.2-.2.16C60,14,60,14.1,60.09,14Z"/><path class="cls-3" d="M47.6,14s0-.06.12,0c.08-.14-.25-.17-.06-.22s.15.21.19.06c-.12,0,0-.09-.06-.11,0,.13-.42-.17-.26,0,0,0,0,.21,0,.21-.17-.22-.12-.25-.18,0C47.52,13.86,47.47,14,47.6,14Z"/><path class="cls-3" d="M37.37,13.8c-.06,0-.06.14,0,.16,0-.22.27-.11.31-.16s-.07,0-.06-.06-.16-.07-.25,0,0-.06-.07,0S37.38,13.75,37.37,13.8Z"/><path class="cls-3" d="M59.15,14.49a.83.83,0,0,0,.42.08c-.2,0-.2-.17-.43-.4C59.29,14.36,59,14.35,59.15,14.49Z"/><path class="cls-3" d="M57.82,13.12a2.34,2.34,0,0,1,.43-.45c-.36,0-.45.56-.82.42C57.56,13.27,57.67,13,57.82,13.12Z"/><path class="cls-3" d="M48,15c.08.14,0,.17.06.22,0-.13.22-.1.19-.27,0,.21-.43-.1-.38.1C47.92,15,48,15,48,15Z"/><path class="cls-3" d="M58.1,13.26c-.12.19-.12.19,0,.19C58.24,13.27,58,13.14,58.1,13.26Z"/><path class="cls-3" d="M48.29,15.19c-.29.11-.28.07-.5-.06,0,.11.08.11.12.16s-.09.09,0,.11a.55.55,0,0,1,.44-.11C48.3,15.28,48.28,15.25,48.29,15.19Z"/><path class="cls-3" d="M49,15.35c0-.11.25.09.25-.11s-.42-.19-.25,0C49.23,15.09,48.87,15.36,49,15.35Z"/><path class="cls-3" d="M50.17,31.53s-.07,0,0,.06.45,0,.19-.17c0,.07-.1.06-.19.06s0-.19.13-.27c-.11.08-.37,0-.25.05s-.09.1,0,.22S50.17,31.48,50.17,31.53Z"/><path class="cls-3" d="M62.81,13.87c-.68.38-.27.38.2.38C63.05,14.05,62.77,14.08,62.81,13.87Z"/><path class="cls-3" d="M44.21,31.42c.13.18-.25.17-.06.22s.1-.09.19-.11-.07.27.12.22C44.52,31.52,44.36,31.48,44.21,31.42Z"/><path class="cls-3" d="M41.58,31.91c-.06-.2.26-.31,0-.38-.13.13.06.19-.13.27C41.53,31.8,41.51,31.89,41.58,31.91Z"/><path class="cls-3" d="M39.88,31.69c.06,0,.06.15,0,.16s0-.2-.19-.16c0,0,0,.11-.06.11s-.05-.06-.06,0c.19.05-.14.09-.13.16a2,2,0,0,1,.69-.11.31.31,0,0,0,.19.16c0-.07.11,0,.13-.1a.27.27,0,0,0-.19.05C40.25,31.81,39.93,31.64,39.88,31.69Z"/><path class="cls-3" d="M59.6,16.07a.89.89,0,0,1,0-.3.55.55,0,0,0,.21.51s0-.17-.1-.09S59.62,16.12,59.6,16.07Z"/><path class="cls-3" d="M59.88,15.1s1.19-.18.12-.12C59.92,15,59.81,15.05,59.88,15.1Z"/><path class="cls-3" d="M64.32,14.81c-.17.59.13.36.39.22C64.57,15,64.52,14.65,64.32,14.81Z"/><path class="cls-3" d="M46.47,16.63c.09-.16.21.09.37.05s-.13-.3-.18-.16.14,0,.12.11c-.17,0-.14-.17-.31-.16C46.49,16.56,46.37,16.61,46.47,16.63Z"/><path class="cls-3" d="M45.4,16.79c.1-.12.23.2.31.27-.15.05-.32-.24-.31,0,.07,0,.45.13.44,0C45.77,17,45.36,16.51,45.4,16.79Z"/><path class="cls-3" d="M37.3,17.54c0-.23.39-.32.25-.48C37.34,17.09,37,17.43,37.3,17.54Z"/><path class="cls-3" d="M55.68,20.4a.39.39,0,0,1,.07.31c-.67-.28.69-.35-.27-.54,0,.16-.06.48.1.6C55.91,20.78,55.38,20.42,55.68,20.4Z"/><path class="cls-3" d="M42.26,17.43s.05.06.07,0-.29-.15-.38,0C42.19,17.52,42,17.52,42.26,17.43Z"/><path class="cls-3" d="M58.22,17.71c-.48.46.13-.06.19.08C58.39,17.53,58.49,17.56,58.22,17.71Z"/><path class="cls-3" d="M57.07,16.48c-.19.06-.38,0-.24-.15.05.21.24.24.09.57C57.15,16.63,57,16.48,57.07,16.48Z"/><path class="cls-3" d="M57.13,16.91c.5-.24-.06-.34.08-.49C57.23,16.64,57,16.77,57.13,16.91Z"/><path class="cls-3" d="M57.56,18.49c.19.11.19.11.19-.07C57.62,18.58,57.64,18.33,57.56,18.49Z"/><path class="cls-3" d="M49,35.38c-.13,0,.09-.14-.12-.16,0,.13-.28,0-.32,0s-.07.17,0,.22C48.59,35.17,49,35.48,49,35.38Z"/><path class="cls-3" d="M38.31,35.7c0,.07-.11,0-.12.11s.08.07.19,0,0-.06.06-.1-.07,0-.06-.11c-.2,0-.5.14-.38.21S38.15,35.71,38.31,35.7Z"/><path class="cls-3" d="M60.41,19.44c-.16.07-.48-.3-.46,0,.15,0,.29-.15.45-.14,0,.34-.58.29-.41.47.36.35.41-.47.89-.44l-.3.32c.15-.16.67,0,.35-.41C60.63,19.23,60.59,19.39,60.41,19.44Z"/><path class="cls-3" d="M54.54,20.27a1.14,1.14,0,0,1,.08-.51c-.43.15.65.54-.32.54Z"/><path class="cls-3" d="M60.76,21c-1-.05-.95.11.05.19C60.7,21.07,60.69,21,60.76,21Z"/><path class="cls-3" d="M60.81,21.14c.24.27.24-.17.39-.05C60.94,21,61,21.07,60.81,21.14Z"/><path class="cls-3" d="M45.91,39.07c0,.07-.22.2-.07.22s.18-.1.13-.27c-.19,0-.44.2-.32.27A.56.56,0,0,1,45.91,39.07Z"/><path class="cls-3" d="M59.6,25.84a.55.55,0,0,0,.23.06c-.53-.2-.73-.72-1.17-.73C59.47,25.53,59.21,25.61,59.6,25.84Z"/><path class="cls-3" d="M40.57,24.39c.08.23-.18.17-.25.26.1,0,.17.08.06.11s-.05-.06-.06,0c.19.16.17-.16.31-.21,0,.05.27.11.06.16,0,0,0-.06-.06,0,.22.14.2-.21.13-.27C40.75,24.69,40.64,24.4,40.57,24.39Z"/><path class="cls-3" d="M43.39,24.6c0-.06.07-.08.13-.11s-.07.13.06.16,0-.15.06-.16,0,.24.07.11.15-.29.06-.16-.33-.12-.38,0C43.55,24.41,43.18,24.74,43.39,24.6Z"/><path class="cls-3" d="M48.86,41.32c-.06,0-.28-.16-.13,0s.25.21.25.1,0-.22-.06-.32c-.32.1,0,0-.25-.1,0,.22.07.21.25.16C48.76,41.18,49,41.27,48.86,41.32Z"/><path class="cls-3" d="M48.23,42.12c-.07,0,0,.07.06.06s-.07-.12-.06-.22.07,0,0-.05a.31.31,0,0,1-.19.16c0-.09.09-.14,0-.16C47.86,42.13,48.14,42.06,48.23,42.12Z"/><path class="cls-3" d="M56.77,30.77c.66.29.26-.23.49-.32C57.27,30.64,56.94,30.62,56.77,30.77Z"/><path class="cls-3" d="M46,27.81c.16-.29.16.18.32-.16-.05,0-.12,0-.13,0s-.19.21-.25,0c.09,0,.41-.27.25,0h.19c-.1-.2,0-.43-.06-.54-.25.17.06-.11-.06-.11s-.06.07-.13.06,0,.19-.06.21,0-.23-.07-.11,0,.09-.12.17C46,27.44,45.73,27.65,46,27.81Z"/><path class="cls-3" d="M59.16,27.33c0-.07.21-.07.21-.07-.41-.35-.41.34-.58.21C59.09,27.48,58.76,27.26,59.16,27.33Z"/><path class="cls-3" d="M56.55,30.75c.07,0-.14,0-.22,0C56.45,30.71,56.61,30.84,56.55,30.75Z"/><path class="cls-3" d="M45.34,28c0-.23-.26,0-.32,0v-.21c-.19,0-.15.19-.18.32C45.1,28.18,45.15,27.88,45.34,28Z"/><path class="cls-3" d="M57.32,31.43c2.36,1,.11,1,.13.05C57.37,31.5,57.47,31.31,57.32,31.43Z"/><path class="cls-3" d="M54.49,30.55c.09.16-.12.33.29.33a.83.83,0,0,1-.31-.39S54.52,30.54,54.49,30.55Z"/><path class="cls-3" d="M56,31.53c-.42-.3.8.55.16-.1C56.09,31.48,56,31.44,56,31.53Z"/><path class="cls-3" d="M58.92,28.84c1.18.09.5-.09-.09-.07C58.85,28.66,59,28.81,58.92,28.84Z"/><path class="cls-3" d="M46.78,28.67c0,.07-.11,0-.12.1s.22.21,0,.16c0-.05.05-.06.06-.1s-.33-.22-.38-.11.08,0,.06.05-.07.05,0,.06a.07.07,0,0,1,.13,0c0,.1-.21,0-.19.16s.22,0,.06-.06a.27.27,0,0,0,.19-.05c0,.07.25.21.25.11S46.87,28.7,46.78,28.67Z"/><path class="cls-3" d="M58.11,32.15c-.06-.07.14-.07.19,0C58.24,32.05,57.93,32.23,58.11,32.15Z"/><path class="cls-3" d="M45.9,30.59c.29-.06.25.15.5.11.09-.15,0-.81-.12-.64.14.05,0,.33.06.48C46.22,30.55,45.72,30.5,45.9,30.59Z"/><path class="cls-3" d="M56.07,30.43s.07,0,0-.05-.07,0-.13,0c-.09.16.05.18-.06.32.17.09.24,0,.38.11,0-.24.12,0,.12-.11-.18,0,.1-.08.07-.16S56.17,30.52,56.07,30.43Z"/><path class="cls-3" d="M60.52,29.1c0-.1.79-.1.12-.38C60.72,28.92,60.3,29,60.52,29.1Z"/><path class="cls-3" d="M62.59,29.52c.18,0,.42-.15.31-.1s-.17,0-.31-.11c.11.31-.05,0-.13.11A.19.19,0,0,1,62.59,29.52Z"/><path class="cls-3" d="M58.57,29.74c0-.07.32-.11.13-.16,0,0,0,.06-.07.05s.08-.13-.06-.16S58.35,29.7,58.57,29.74Z"/><path class="cls-3" d="M51.05,33.32c.06,0,.25,0,.31-.21,0,0-.07,0-.06-.06s.07,0,0,0-.07,0-.13,0-.07,0-.12,0c0,.17.13.23-.06.32,0-.06,0-.14-.07-.06A.18.18,0,0,0,51.05,33.32Z"/><path class="cls-3" d="M53.24,33.48c0,.06-.06.08-.12.11s0,.16.06.21.11,0,.13-.11c-.25-.06,0-.11,0-.26s-.34-.17-.19-.06.07,0,.06.06-.16,0-.06,0S53.22,33.4,53.24,33.48Z"/><path class="cls-3" d="M48.91,36s.08,0,0-.06.1.14.13.27-.07,0,0,0,.24.08.31-.1C49.16,36.1,49,36.21,48.91,36Z"/><path class="cls-3" d="M43.33,36.64s.07,0,.06,0-.07,0,0,.05c.16-.21,0,.18.13,0,.11,0,0-.08.06-.1s0,.14.13.16.14-.2.06-.27C43.73,36.72,43.37,36.51,43.33,36.64Z"/><path class="cls-3" d="M27.64,36.8s.07,0,0-.06c-.13.21-.26-.21-.31.06s-.1,0,.18.26c-.07,0-.09-.07-.12,0s.06.1.12.11,0-.1.07-.11-.13-.1-.13-.21h.19c-.07.11.1.26.13.11s0-.06,0-.11S27.64,36.85,27.64,36.8Z"/><path class="cls-3" d="M63.38,33.7c0,.1-.23.1-.23.27h.61c-.2-1-.2,0-.46-.07C63.38,33.86,63.49,33.67,63.38,33.7Z"/><path class="cls-3" d="M23.62,37.07h0c-.15-.05-.29.12-.3,0a.2.2,0,0,1,.3,0h0c.05,0,.08.09.07,0s0-.07,0-.16h-.38a.26.26,0,0,1-.06.16C23.36,37.14,23.53,37.23,23.62,37.07Z"/><path class="cls-3" d="M35.92,37.39c-.05-.07-.25-.28-.37-.11C35.8,37.5,36.7,37.34,35.92,37.39Z"/><path class="cls-3" d="M74.57,36.66c-.1-1,.11,0,.11,0,.2-.35-.41,0-.33-.31C74.47,36.5,74.25,36.67,74.57,36.66Z"/><path class="cls-3" d="M38,41.45c1.28.07.05-.1,0-.17C38,41.38,37.89,41.42,38,41.45Z"/><path class="cls-3" d="M35.36,37.39c0,.12-.22.23-.06.26,0-.07.48,0,.31,0A1.27,1.27,0,0,1,35.36,37.39Z"/><path class="cls-3" d="M35.92,37.55c-.19,0-.27-.3-.44-.11.05.08.31,0,.26.16C35.81,37.59,35.91,37.61,35.92,37.55Z"/><path class="cls-3" d="M74.58,38.27a2.77,2.77,0,0,0-.67.1,1.6,1.6,0,0,0,.48.2C74.12,38.32,74.81,38.31,74.58,38.27Z"/><path class="cls-3" d="M46.59,40.17c-.08,0,0,.2-.12.21s.18-.22,0-.27c0,0,0,.11-.07.11s0,.09,0,.22C46.63,40.52,46.75,40.24,46.59,40.17Z"/><path class="cls-3" d="M63.58,40.2c-.13.09-.13.26-.13.43,0-.17,0-.17.18-.18C63.4,40.52,63.74,40.2,63.58,40.2Z"/></g><path d="M25.43,52.78v8.8c0,1.33.36,2.44,2,2.44v.57h-7.6V64c1.64,0,2-1.11,2-2.44V51.69l-5.35,10.4h-.85l-5.17-9.82v9.31c0,1.8.51,2.44,2.12,2.44v.57H7.74V64c1.62,0,1.87-.64,1.87-2.44v-8.8c0-1.34-.25-2.44-1.87-2.44v-.6h5.48l4.28,8.47,4.33-8.47h5.6v.6C25.79,50.34,25.43,51.44,25.43,52.78Z"/><path d="M39.86,64a2.72,2.72,0,0,1-2.23.83c-1.14,0-2.48-.38-2.8-1.4a3.3,3.3,0,0,1-3,1.4c-1.76,0-3.42-.57-3.71-2.12s.49-3,3-3.5c2-.4,3.22,0,3-1.44-.19-1.08-.57-2.21-1.63-2.21-1.34-.1-1.95,1.21-1.13,1.89a1.47,1.47,0,0,1-2,.7,1.17,1.17,0,0,1-.49-1.61c.51-1.38,2.36-1.72,3.57-1.72,3.39,0,4.79,1.12,5.17,3.8.3,2.14.4,3,.4,3a6.22,6.22,0,0,0,.47,1.86,1,1,0,0,0,1.19.07C39.77,63.72,39.79,63.74,39.86,64ZM34.58,61.3c-.07-.76-.15-1.55-.24-2.08-.17.34-.4.45-1.48.75a1.89,1.89,0,0,0-1.4,2.14,1.6,1.6,0,0,0,1.89,1.36C34.36,63.23,34.64,62.32,34.58,61.3Z"/><path d="M49.89,62.32c-.42,2.08-3.12,2.59-5.28,2.46-1.76-.08-4.14-.78-4.48-2.18a1.79,1.79,0,0,1,1.95-2.29,1.69,1.69,0,0,1,1.55,1.78.82.82,0,0,0-.91,1c.13.57,1.1.82,2,.89,1.15.06,2.06-.36,2.15-1,.14-1.1-.81-1.44-2.3-2.21s-3.3-1.65-3.07-3.69,2.35-2.52,4.22-2.31c1.38.17,1.7.81,1.89,0h.36l.21,3.29h-.51c-.36-1.72-.85-2.38-1.95-2.51-.74-.1-1.27.15-1.34.75-.1.82.83,1.21,2.29,2S50.38,60,49.89,62.32Z"/><path d="M64.78,64v.57H58V64c1.61,0,1.64-1.13,1.49-2.44,0,0-.3-1.93-.43-2.72-.19-1.25-.34-2.37-1.8-2.37-1.27,0-1.8,1.12-1.8,2.52v2.57c0,1.33.12,2.44,1.74,2.44v.57h-7V64C51.8,64,52,62.91,52,61.58V54.43C52,53.09,51.8,52,50.19,52V51.4a7.84,7.84,0,0,0,4.67-1.66h.57v6.68a3.89,3.89,0,0,1,3.37-1.65c2.14,0,3.29,1.15,3.67,3.82.3,2.12.4,3,.4,3C63,62.83,63.17,64,64.78,64Z"/><path d="M72.42,64v.57h-7V64c1.61,0,1.82-1.11,1.82-2.44V59.44C67.24,58.1,67,57,65.42,57v-.58a7.83,7.83,0,0,0,4.67-1.65h.57v6.81C70.66,62.91,70.79,64,72.42,64ZM66.48,51.76a2.12,2.12,0,1,1,2.12,2A2.08,2.08,0,0,1,66.48,51.76Z"/><path d="M79.88,62.45c-.55,1.31-1.37,2.33-2.94,2.33s-3.08-1.12-3.08-3.39V55.81H72.21V55a4.46,4.46,0,0,0,4.43-3.58h.66V55h2.25v.83H77.3v5.75c0,1,.36,1.27.87,1.38a1.26,1.26,0,0,0,1.31-.7Z"/><path d="M91.11,59.78c0,3-2.32,5-5.5,5s-5.51-2-5.51-5,2.31-5,5.51-5S91.11,56.79,91.11,59.78Zm-3.48-.36c-.45-2.55-1.47-4.06-2.76-3.82s-1.72,2-1.27,4.54,1.46,4,2.73,3.81S88.07,62,87.63,59.42Z"/><path d="M10.43,77.11H8.15l-.5,1.11h-.3l1.8-3.93h.29l1.8,3.93h-.31Zm-.11-.24-1-2.26-1,2.26Z"/><path d="M15.26,76.27h.28v1.47a1.83,1.83,0,0,1-.63.38,2.45,2.45,0,0,1-.78.13A2.18,2.18,0,0,1,13.08,78a1.91,1.91,0,0,1-.73-.71,2.08,2.08,0,0,1,0-2,1.91,1.91,0,0,1,.73-.71,2.19,2.19,0,0,1,1.06-.26,2.22,2.22,0,0,1,.79.14,1.74,1.74,0,0,1,.62.4l-.18.19a1.47,1.47,0,0,0-.55-.35,1.83,1.83,0,0,0-.68-.11,1.86,1.86,0,0,0-.91.22,1.63,1.63,0,0,0-.63.62,1.68,1.68,0,0,0-.23.88,1.72,1.72,0,0,0,.23.88,1.59,1.59,0,0,0,.64.62,1.9,1.9,0,0,0,2-.13Z"/><path d="M20.08,78.22l-.94-1.31-.38,0H17.64v1.29h-.29V74.29h1.41a1.78,1.78,0,0,1,1.16.35,1.21,1.21,0,0,1,.42,1,1.25,1.25,0,0,1-.24.78,1.21,1.21,0,0,1-.68.44l1,1.38Zm-1.32-1.54a1.43,1.43,0,0,0,1-.28,1,1,0,0,0,.33-.78,1,1,0,0,0-.33-.79,1.43,1.43,0,0,0-1-.28H17.64v2.13Z"/><path d="M22,74.29h.28v3.93H22Z"/><path d="M24.78,78a1.91,1.91,0,0,1-.73-.71,2.15,2.15,0,0,1,0-2,1.91,1.91,0,0,1,.73-.71,2.14,2.14,0,0,1,1-.26,2.22,2.22,0,0,1,.79.14,1.6,1.6,0,0,1,.61.41L27,75a1.66,1.66,0,0,0-1.21-.46,1.78,1.78,0,0,0-.89.22,1.73,1.73,0,0,0-.64.62,1.82,1.82,0,0,0,0,1.77,1.73,1.73,0,0,0,.64.62,1.78,1.78,0,0,0,.89.22A1.67,1.67,0,0,0,27,77.51l.18.19a1.62,1.62,0,0,1-.62.4,2,2,0,0,1-.78.15A2.14,2.14,0,0,1,24.78,78Z"/><path d="M29.11,77.81a1.71,1.71,0,0,1-.41-1.26V74.29H29v2.25a1.55,1.55,0,0,0,.33,1.08,1.24,1.24,0,0,0,1,.36,1.25,1.25,0,0,0,1-.36,1.55,1.55,0,0,0,.33-1.08V74.29h.28v2.26a1.75,1.75,0,0,1-.41,1.26,1.54,1.54,0,0,1-1.16.44A1.51,1.51,0,0,1,29.11,77.81Z"/><path d="M33.74,74.29H34V78h2.26v.26H33.74Z"/><path d="M38,74.55H36.55v-.26h3.11v.26H38.25v3.67H38Z"/><path d="M41.23,77.81a1.71,1.71,0,0,1-.41-1.26V74.29h.28v2.25a1.55,1.55,0,0,0,.33,1.08,1.24,1.24,0,0,0,1,.36,1.21,1.21,0,0,0,1-.36,1.55,1.55,0,0,0,.33-1.08V74.29H44v2.26a1.75,1.75,0,0,1-.41,1.26,1.54,1.54,0,0,1-1.16.44A1.51,1.51,0,0,1,41.23,77.81Z"/><path d="M48.58,78.22l-.94-1.31-.38,0H46.14v1.29h-.28V74.29h1.4a1.76,1.76,0,0,1,1.16.35,1.21,1.21,0,0,1,.42,1,1.31,1.31,0,0,1-.23.78,1.24,1.24,0,0,1-.69.44l1,1.38Zm-1.32-1.54a1.43,1.43,0,0,0,1-.28,1,1,0,0,0,.33-.78,1,1,0,0,0-.33-.79,1.43,1.43,0,0,0-1-.28H46.14v2.13Z"/><path d="M52.88,77.11H50.6l-.5,1.11h-.3l1.8-3.93h.29l1.8,3.93h-.31Zm-.11-.24-1-2.26-1,2.26Z"/><path d="M60.68,78.22V74.86L59,77.7h-.14l-1.64-2.83v3.35H57V74.29h.24l1.75,3,1.76-3H61v3.93Z"/><path d="M65.59,78v.26H62.88V74.29h2.63v.26H63.17V76.1h2.09v.25H63.17V78Z"/><path d="M69.61,78.22,68.26,76.4l-1.35,1.82h-.34l1.51-2-1.4-1.9H67L68.27,76l1.25-1.69h.32l-1.4,1.9,1.5,2Z"/><path d="M71.17,74.29h.29v3.93h-.29Z"/><path d="M74,78a1.89,1.89,0,0,1-.72-.71,2.08,2.08,0,0,1,0-2,1.89,1.89,0,0,1,.72-.71,2.14,2.14,0,0,1,1-.26,2.22,2.22,0,0,1,.79.14,1.6,1.6,0,0,1,.61.41l-.18.18a1.64,1.64,0,0,0-1.2-.46,1.82,1.82,0,0,0-.9.22,1.63,1.63,0,0,0-.63.62,1.75,1.75,0,0,0,0,1.77,1.63,1.63,0,0,0,.63.62,1.82,1.82,0,0,0,.9.22,1.66,1.66,0,0,0,1.2-.47l.18.19a1.58,1.58,0,0,1-.61.4,2.09,2.09,0,0,1-.79.15A2.14,2.14,0,0,1,74,78Z"/><path d="M80.28,77.11H78l-.5,1.11h-.3L79,74.29h.29l1.8,3.93h-.31Zm-.11-.24-1-2.26-1,2.26Z"/><path d="M85.56,74.29v3.93h-.24l-2.67-3.41v3.41h-.29V74.29h.25l2.66,3.41V74.29Z"/><path d="M89.92,77.11H87.64l-.5,1.11h-.31l1.81-3.93h.28l1.81,3.93h-.31Zm-.11-.24-1-2.26-1,2.26Z"/><path d="M26.7,90a1.29,1.29,0,0,1-.53-.32l.14-.27a1.26,1.26,0,0,0,.48.29,1.67,1.67,0,0,0,.63.11,1.12,1.12,0,0,0,.67-.16.51.51,0,0,0,.23-.43.44.44,0,0,0-.12-.32,1.17,1.17,0,0,0-.3-.19l-.5-.14a4.5,4.5,0,0,1-.6-.18,1.05,1.05,0,0,1-.39-.27.73.73,0,0,1-.16-.5.82.82,0,0,1,.13-.46.89.89,0,0,1,.42-.33,1.55,1.55,0,0,1,.69-.13,2.1,2.1,0,0,1,.56.08,1.63,1.63,0,0,1,.48.22l-.12.28a1.85,1.85,0,0,0-.45-.21,2,2,0,0,0-.47-.07,1.12,1.12,0,0,0-.67.17.53.53,0,0,0-.22.44.46.46,0,0,0,.12.33.79.79,0,0,0,.31.18c.12.05.29.09.5.15l.59.17a1,1,0,0,1,.39.27.71.71,0,0,1,.16.49.83.83,0,0,1-.14.46.89.89,0,0,1-.42.33,1.6,1.6,0,0,1-.69.13A2.18,2.18,0,0,1,26.7,90Z"/><path d="M29.92,86.71h.36v3.36h-.36Z"/><path d="M34.66,86.71v3.36h-.3L32.2,87.34v2.73h-.35V86.71h.29l2.16,2.73V86.71Z"/><path d="M36.79,89.88a1.57,1.57,0,0,1-.63-.62,1.71,1.71,0,0,1-.23-.87,1.75,1.75,0,0,1,.23-.88,1.61,1.61,0,0,1,.63-.61,1.82,1.82,0,0,1,.9-.22,1.73,1.73,0,0,1,.69.13,1.42,1.42,0,0,1,.54.36l-.22.23a1.35,1.35,0,0,0-1-.4,1.48,1.48,0,0,0-.72.18,1.29,1.29,0,0,0-.51.5,1.42,1.42,0,0,0,0,1.42,1.29,1.29,0,0,0,.51.5,1.48,1.48,0,0,0,.72.18,1.32,1.32,0,0,0,1-.4l.22.22a1.45,1.45,0,0,1-.54.37,1.93,1.93,0,0,1-1.59-.09Z"/><path d="M42.53,89.76v.31H40.16V86.71h2.3V87h-2v1.19h1.74v.3H40.51v1.25Z"/><path d="M60.6,89.76v.31H58.24v-.25l1.4-1.36A2.24,2.24,0,0,0,60,88a.92.92,0,0,0,.09-.38.59.59,0,0,0-.2-.47A.92.92,0,0,0,59.3,87a1.14,1.14,0,0,0-.91.37l-.25-.21a1.29,1.29,0,0,1,.5-.35,1.73,1.73,0,0,1,.69-.13,1.29,1.29,0,0,1,.82.24.82.82,0,0,1,.3.67,1.11,1.11,0,0,1-.12.5,2.09,2.09,0,0,1-.44.55l-1.14,1.12Z"/><path d="M62.14,89.89a1.35,1.35,0,0,1-.48-.59,2.52,2.52,0,0,1,0-1.82,1.35,1.35,0,0,1,.48-.59,1.24,1.24,0,0,1,1.38,0,1.29,1.29,0,0,1,.48.59,2.52,2.52,0,0,1,0,1.82,1.29,1.29,0,0,1-.48.59,1.24,1.24,0,0,1-1.38,0Zm1.21-.27a1,1,0,0,0,.34-.48,1.9,1.9,0,0,0,.13-.75,1.83,1.83,0,0,0-.13-.75,1,1,0,0,0-.34-.48.92.92,0,0,0-1,0,1.1,1.1,0,0,0-.34.48,1.83,1.83,0,0,0-.13.75,1.9,1.9,0,0,0,.13.75,1.1,1.1,0,0,0,.34.48.93.93,0,0,0,1,0Z"/><path d="M67.43,89.76v.31H65.08v-.25l1.39-1.36a1.93,1.93,0,0,0,.36-.45.92.92,0,0,0,.09-.38.59.59,0,0,0-.2-.47.91.91,0,0,0-.58-.16,1.15,1.15,0,0,0-.92.37L65,87.16a1.33,1.33,0,0,1,.51-.35,1.67,1.67,0,0,1,.69-.13,1.26,1.26,0,0,1,.81.24.82.82,0,0,1,.3.67,1.11,1.11,0,0,1-.12.5,2,2,0,0,1-.43.55l-1.15,1.12Z"/><path d="M69,89.89a1.42,1.42,0,0,1-.48-.59,2.52,2.52,0,0,1,0-1.82,1.42,1.42,0,0,1,.48-.59,1.17,1.17,0,0,1,.69-.21,1.23,1.23,0,0,1,.7.21,1.33,1.33,0,0,1,.47.59,2.39,2.39,0,0,1,0,1.82,1.33,1.33,0,0,1-.47.59,1.23,1.23,0,0,1-.7.21A1.17,1.17,0,0,1,69,89.89Zm1.21-.27a1.11,1.11,0,0,0,.35-.48,2.11,2.11,0,0,0,.12-.75,2,2,0,0,0-.12-.75,1.11,1.11,0,0,0-.35-.48.85.85,0,0,0-.52-.16.82.82,0,0,0-.51.16,1,1,0,0,0-.35.48,2,2,0,0,0-.13.75,2.1,2.1,0,0,0,.13.75,1,1,0,0,0,.35.48.82.82,0,0,0,.51.16A.85.85,0,0,0,70.18,89.62Z"/><rect x="49.2" y="86.97" width="2.24" height="2.24" transform="translate(77.03 -9.78) rotate(45)"/><path d="M74.16,90h10.5a2.46,2.46,0,0,0,2.66-2.52c0-1.57-1.18-2.1-2.09-1.74a2,2,0,0,0-1.08,1.94,1.24,1.24,0,0,1,1.6-.87A1.45,1.45,0,0,1,86.47,89c-.47.46-1.49.07-2.31.07H75.7A2.13,2.13,0,0,0,74.16,90Z"/><path d="M21.78,90H11.29a2.45,2.45,0,0,1-2.66-2.52c0-1.57,1.17-2.1,2.09-1.74a2,2,0,0,1,1.08,1.94,1.24,1.24,0,0,0-1.6-.87A1.44,1.44,0,0,0,9.48,89c.46.46,1.48.07,2.31.07h8.46A2.13,2.13,0,0,1,21.78,90Z"/></g></svg>